%FSLAX34Y34*%
%MOMM*%
%LNSILK_BOTTOM*%
G71*
G01*
%ADD10C, 0.24*%
%ADD11C, 0.20*%
%LPD*%
G54D10*
X15875Y-178817D02*
X15875Y-184150D01*
X16708Y-184150D01*
X18375Y-183483D01*
X23375Y-179483D01*
X25042Y-178817D01*
X26708Y-178817D01*
X28375Y-179483D01*
X29208Y-180817D01*
X29208Y-182150D01*
X28375Y-183483D01*
X26708Y-184150D01*
G54D10*
X15875Y-168817D02*
X15875Y-174150D01*
X16708Y-174150D01*
X18375Y-173483D01*
X23375Y-169483D01*
X25042Y-168817D01*
X26708Y-168817D01*
X28375Y-169483D01*
X29208Y-170817D01*
X29208Y-172150D01*
X28375Y-173483D01*
X26708Y-174150D01*
G54D10*
X15875Y-164150D02*
X29208Y-164150D01*
G54D10*
X20875Y-162150D02*
X15875Y-160150D01*
G54D10*
X19208Y-164150D02*
X23375Y-160150D01*
G54D10*
X204217Y-31750D02*
X209550Y-31750D01*
X209550Y-30917D01*
X208883Y-29250D01*
X204883Y-24250D01*
X204217Y-22583D01*
X204217Y-20917D01*
X204883Y-19250D01*
X206217Y-18417D01*
X207550Y-18417D01*
X208883Y-19250D01*
X209550Y-20917D01*
G54D10*
X194217Y-31750D02*
X199550Y-31750D01*
X199550Y-30917D01*
X198883Y-29250D01*
X194883Y-24250D01*
X194217Y-22583D01*
X194217Y-20917D01*
X194883Y-19250D01*
X196217Y-18417D01*
X197550Y-18417D01*
X198883Y-19250D01*
X199550Y-20917D01*
G54D10*
X189550Y-31750D02*
X189550Y-18417D01*
G54D10*
X187550Y-26750D02*
X185550Y-31750D01*
G54D10*
X189550Y-28417D02*
X185550Y-24250D01*
G54D10*
X191517Y-84417D02*
X192183Y-82750D01*
X193517Y-81917D01*
X194850Y-81917D01*
X196183Y-82750D01*
X196850Y-84417D01*
X196850Y-88583D01*
X196850Y-89417D01*
X194850Y-87750D01*
X193517Y-87750D01*
X192183Y-88583D01*
X191517Y-90250D01*
X191517Y-92750D01*
X192183Y-94417D01*
X193517Y-95250D01*
X194850Y-95250D01*
X196183Y-94417D01*
X196850Y-92750D01*
X196850Y-88583D01*
G54D10*
X183517Y-88583D02*
X184850Y-88583D01*
X186183Y-87750D01*
X186850Y-86083D01*
X186850Y-84417D01*
X186183Y-82750D01*
X184850Y-81917D01*
X183517Y-81917D01*
X182183Y-82750D01*
X181517Y-84417D01*
X181517Y-86083D01*
X182183Y-87750D01*
X183517Y-88583D01*
X182183Y-89417D01*
X181517Y-91083D01*
X181517Y-92750D01*
X182183Y-94417D01*
X183517Y-95250D01*
X184850Y-95250D01*
X186183Y-94417D01*
X186850Y-92750D01*
X186850Y-91083D01*
X186183Y-89417D01*
X184850Y-88583D01*
G54D10*
X171517Y-84417D02*
X171517Y-92750D01*
X172183Y-94417D01*
X173517Y-95250D01*
X174850Y-95250D01*
X176183Y-94417D01*
X176850Y-92750D01*
X176850Y-84417D01*
X176183Y-82750D01*
X174850Y-81917D01*
X173517Y-81917D01*
X172183Y-82750D01*
X171517Y-84417D01*
G54D10*
X137542Y-335242D02*
X138208Y-333575D01*
X139542Y-332742D01*
X140875Y-332742D01*
X142208Y-333575D01*
X142875Y-335242D01*
X142875Y-339408D01*
X142875Y-340242D01*
X140875Y-338575D01*
X139542Y-338575D01*
X138208Y-339408D01*
X137542Y-341075D01*
X137542Y-343575D01*
X138208Y-345242D01*
X139542Y-346075D01*
X140875Y-346075D01*
X142208Y-345242D01*
X142875Y-343575D01*
X142875Y-339408D01*
G54D10*
X129542Y-339408D02*
X130875Y-339408D01*
X132208Y-338575D01*
X132875Y-336908D01*
X132875Y-335242D01*
X132208Y-333575D01*
X130875Y-332742D01*
X129542Y-332742D01*
X128208Y-333575D01*
X127542Y-335242D01*
X127542Y-336908D01*
X128208Y-338575D01*
X129542Y-339408D01*
X128208Y-340242D01*
X127542Y-341908D01*
X127542Y-343575D01*
X128208Y-345242D01*
X129542Y-346075D01*
X130875Y-346075D01*
X132208Y-345242D01*
X132875Y-343575D01*
X132875Y-341908D01*
X132208Y-340242D01*
X130875Y-339408D01*
G54D10*
X117542Y-335242D02*
X117542Y-343575D01*
X118208Y-345242D01*
X119542Y-346075D01*
X120875Y-346075D01*
X122208Y-345242D01*
X122875Y-343575D01*
X122875Y-335242D01*
X122208Y-333575D01*
X120875Y-332742D01*
X119542Y-332742D01*
X118208Y-333575D01*
X117542Y-335242D01*
G54D10*
X367475Y-612775D02*
X367475Y-599442D01*
X371475Y-607775D01*
X371475Y-609442D01*
X366142Y-609442D01*
G54D10*
X361475Y-599442D02*
X356142Y-599442D01*
X356808Y-601108D01*
X358142Y-603608D01*
X359475Y-606942D01*
X360142Y-609442D01*
X360142Y-612775D01*
G54D10*
X351475Y-612775D02*
X351475Y-599442D01*
G54D10*
X349475Y-607775D02*
X347475Y-612775D01*
G54D10*
X351475Y-609442D02*
X347475Y-605275D01*
G54D10*
X250825Y-665925D02*
X264158Y-665925D01*
X255825Y-669925D01*
X254158Y-669925D01*
X254158Y-664592D01*
G54D10*
X264158Y-659925D02*
X264158Y-654592D01*
X262492Y-655258D01*
X259992Y-656592D01*
X256658Y-657925D01*
X254158Y-658592D01*
X250825Y-658592D01*
G54D10*
X250825Y-649925D02*
X264158Y-649925D01*
G54D10*
X255825Y-647925D02*
X250825Y-645925D01*
G54D10*
X254158Y-649925D02*
X258325Y-645925D01*
G54D10*
X96558Y-455042D02*
X98225Y-455708D01*
X99058Y-457042D01*
X99058Y-458375D01*
X98225Y-459708D01*
X96558Y-460375D01*
X92392Y-460375D01*
X91558Y-460375D01*
X93225Y-458375D01*
X93225Y-457042D01*
X92392Y-455708D01*
X90725Y-455042D01*
X88225Y-455042D01*
X86558Y-455708D01*
X85725Y-457042D01*
X85725Y-458375D01*
X86558Y-459708D01*
X88225Y-460375D01*
X92392Y-460375D01*
G54D10*
X92392Y-447042D02*
X92392Y-448375D01*
X93225Y-449708D01*
X94892Y-450375D01*
X96558Y-450375D01*
X98225Y-449708D01*
X99058Y-448375D01*
X99058Y-447042D01*
X98225Y-445708D01*
X96558Y-445042D01*
X94892Y-445042D01*
X93225Y-445708D01*
X92392Y-447042D01*
X91558Y-445708D01*
X89892Y-445042D01*
X88225Y-445042D01*
X86558Y-445708D01*
X85725Y-447042D01*
X85725Y-448375D01*
X86558Y-449708D01*
X88225Y-450375D01*
X89892Y-450375D01*
X91558Y-449708D01*
X92392Y-448375D01*
G54D10*
X96558Y-435042D02*
X88225Y-435042D01*
X86558Y-435708D01*
X85725Y-437042D01*
X85725Y-438375D01*
X86558Y-439708D01*
X88225Y-440375D01*
X96558Y-440375D01*
X98225Y-439708D01*
X99058Y-438375D01*
X99058Y-437042D01*
X98225Y-435708D01*
X96558Y-435042D01*
G54D10*
X196850Y-703542D02*
X196183Y-701875D01*
X194850Y-701042D01*
X193517Y-701042D01*
X192183Y-701875D01*
X191517Y-703542D01*
X191517Y-705208D01*
X192183Y-706875D01*
X193517Y-707708D01*
X192183Y-708542D01*
X191517Y-710208D01*
X191517Y-711875D01*
X192183Y-713542D01*
X193517Y-714375D01*
X194850Y-714375D01*
X196183Y-713542D01*
X196850Y-711875D01*
G54D10*
X186850Y-714375D02*
X186850Y-701042D01*
G54D10*
X184850Y-709375D02*
X182850Y-714375D01*
G54D10*
X186850Y-711042D02*
X182850Y-706875D01*
G54D10*
X178183Y-703542D02*
X177516Y-701875D01*
X176183Y-701042D01*
X174850Y-701042D01*
X173516Y-701875D01*
X172850Y-703542D01*
X172850Y-705208D01*
X173516Y-706875D01*
X174850Y-707708D01*
X173516Y-708542D01*
X172850Y-710208D01*
X172850Y-711875D01*
X173516Y-713542D01*
X174850Y-714375D01*
X176183Y-714375D01*
X177516Y-713542D01*
X178183Y-711875D01*
G54D10*
X366142Y-638175D02*
X371475Y-638175D01*
X371475Y-637342D01*
X370808Y-635675D01*
X366808Y-630675D01*
X366142Y-629008D01*
X366142Y-627342D01*
X366808Y-625675D01*
X368142Y-624842D01*
X369475Y-624842D01*
X370808Y-625675D01*
X371475Y-627342D01*
G54D10*
X361475Y-638175D02*
X361475Y-624842D01*
G54D10*
X359475Y-633175D02*
X357475Y-638175D01*
G54D10*
X361475Y-634842D02*
X357475Y-630675D01*
G54D10*
X347475Y-638175D02*
X352808Y-638175D01*
X352808Y-637342D01*
X352141Y-635675D01*
X348141Y-630675D01*
X347475Y-629008D01*
X347475Y-627342D01*
X348141Y-625675D01*
X349475Y-624842D01*
X350808Y-624842D01*
X352141Y-625675D01*
X352808Y-627342D01*
G54D10*
X366142Y-587375D02*
X371475Y-587375D01*
X371475Y-586542D01*
X370808Y-584875D01*
X366808Y-579875D01*
X366142Y-578208D01*
X366142Y-576542D01*
X366808Y-574875D01*
X368142Y-574042D01*
X369475Y-574042D01*
X370808Y-574875D01*
X371475Y-576542D01*
G54D10*
X356142Y-587375D02*
X361475Y-587375D01*
X361475Y-586542D01*
X360808Y-584875D01*
X356808Y-579875D01*
X356142Y-578208D01*
X356142Y-576542D01*
X356808Y-574875D01*
X358142Y-574042D01*
X359475Y-574042D01*
X360808Y-574875D01*
X361475Y-576542D01*
G54D10*
X351475Y-587375D02*
X351475Y-574042D01*
G54D10*
X349475Y-582375D02*
X347475Y-587375D01*
G54D10*
X351475Y-584042D02*
X347475Y-579875D01*
G54D10*
X188342Y-452717D02*
X189008Y-451050D01*
X190342Y-450217D01*
X191675Y-450217D01*
X193008Y-451050D01*
X193675Y-452717D01*
X193675Y-456883D01*
X193675Y-457717D01*
X191675Y-456050D01*
X190342Y-456050D01*
X189008Y-456883D01*
X188342Y-458550D01*
X188342Y-461050D01*
X189008Y-462717D01*
X190342Y-463550D01*
X191675Y-463550D01*
X193008Y-462717D01*
X193675Y-461050D01*
X193675Y-456883D01*
G54D10*
X180342Y-456883D02*
X181675Y-456883D01*
X183008Y-456050D01*
X183675Y-454383D01*
X183675Y-452717D01*
X183008Y-451050D01*
X181675Y-450217D01*
X180342Y-450217D01*
X179008Y-451050D01*
X178342Y-452717D01*
X178342Y-454383D01*
X179008Y-456050D01*
X180342Y-456883D01*
X179008Y-457717D01*
X178342Y-459383D01*
X178342Y-461050D01*
X179008Y-462717D01*
X180342Y-463550D01*
X181675Y-463550D01*
X183008Y-462717D01*
X183675Y-461050D01*
X183675Y-459383D01*
X183008Y-457717D01*
X181675Y-456883D01*
G54D10*
X168342Y-452717D02*
X168342Y-461050D01*
X169008Y-462717D01*
X170342Y-463550D01*
X171675Y-463550D01*
X173008Y-462717D01*
X173675Y-461050D01*
X173675Y-452717D01*
X173008Y-451050D01*
X171675Y-450217D01*
X170342Y-450217D01*
X169008Y-451050D01*
X168342Y-452717D01*
G54D10*
X498475Y-178817D02*
X498475Y-184150D01*
X499308Y-184150D01*
X500975Y-183483D01*
X505975Y-179483D01*
X507642Y-178817D01*
X509308Y-178817D01*
X510975Y-179483D01*
X511808Y-180817D01*
X511808Y-182150D01*
X510975Y-183483D01*
X509308Y-184150D01*
G54D10*
X498475Y-168817D02*
X498475Y-174150D01*
X499308Y-174150D01*
X500975Y-173483D01*
X505975Y-169483D01*
X507642Y-168817D01*
X509308Y-168817D01*
X510975Y-169483D01*
X511808Y-170817D01*
X511808Y-172150D01*
X510975Y-173483D01*
X509308Y-174150D01*
G54D10*
X498475Y-164150D02*
X511808Y-164150D01*
G54D10*
X503475Y-162150D02*
X498475Y-160150D01*
G54D10*
X501808Y-164150D02*
X505975Y-160150D01*
G54D10*
X686817Y-31750D02*
X692150Y-31750D01*
X692150Y-30917D01*
X691483Y-29250D01*
X687483Y-24250D01*
X686817Y-22583D01*
X686817Y-20917D01*
X687483Y-19250D01*
X688817Y-18417D01*
X690150Y-18417D01*
X691483Y-19250D01*
X692150Y-20917D01*
G54D10*
X676817Y-31750D02*
X682150Y-31750D01*
X682150Y-30917D01*
X681483Y-29250D01*
X677483Y-24250D01*
X676817Y-22583D01*
X676817Y-20917D01*
X677483Y-19250D01*
X678817Y-18417D01*
X680150Y-18417D01*
X681483Y-19250D01*
X682150Y-20917D01*
G54D10*
X672150Y-31750D02*
X672150Y-18417D01*
G54D10*
X670150Y-26750D02*
X668150Y-31750D01*
G54D10*
X672150Y-28417D02*
X668150Y-24250D01*
G54D10*
X674117Y-84417D02*
X674783Y-82750D01*
X676117Y-81917D01*
X677450Y-81917D01*
X678783Y-82750D01*
X679450Y-84417D01*
X679450Y-88583D01*
X679450Y-89417D01*
X677450Y-87750D01*
X676117Y-87750D01*
X674783Y-88583D01*
X674117Y-90250D01*
X674117Y-92750D01*
X674783Y-94417D01*
X676117Y-95250D01*
X677450Y-95250D01*
X678783Y-94417D01*
X679450Y-92750D01*
X679450Y-88583D01*
G54D10*
X666117Y-88583D02*
X667450Y-88583D01*
X668783Y-87750D01*
X669450Y-86083D01*
X669450Y-84417D01*
X668783Y-82750D01*
X667450Y-81917D01*
X666117Y-81917D01*
X664783Y-82750D01*
X664117Y-84417D01*
X664117Y-86083D01*
X664783Y-87750D01*
X666117Y-88583D01*
X664783Y-89417D01*
X664117Y-91083D01*
X664117Y-92750D01*
X664783Y-94417D01*
X666117Y-95250D01*
X667450Y-95250D01*
X668783Y-94417D01*
X669450Y-92750D01*
X669450Y-91083D01*
X668783Y-89417D01*
X667450Y-88583D01*
G54D10*
X654117Y-84417D02*
X654117Y-92750D01*
X654783Y-94417D01*
X656117Y-95250D01*
X657450Y-95250D01*
X658783Y-94417D01*
X659450Y-92750D01*
X659450Y-84417D01*
X658783Y-82750D01*
X657450Y-81917D01*
X656117Y-81917D01*
X654783Y-82750D01*
X654117Y-84417D01*
G54D10*
X620142Y-335242D02*
X620808Y-333575D01*
X622142Y-332742D01*
X623475Y-332742D01*
X624808Y-333575D01*
X625475Y-335242D01*
X625475Y-339408D01*
X625475Y-340242D01*
X623475Y-338575D01*
X622142Y-338575D01*
X620808Y-339408D01*
X620142Y-341075D01*
X620142Y-343575D01*
X620808Y-345242D01*
X622142Y-346075D01*
X623475Y-346075D01*
X624808Y-345242D01*
X625475Y-343575D01*
X625475Y-339408D01*
G54D10*
X612142Y-339408D02*
X613475Y-339408D01*
X614808Y-338575D01*
X615475Y-336908D01*
X615475Y-335242D01*
X614808Y-333575D01*
X613475Y-332742D01*
X612142Y-332742D01*
X610808Y-333575D01*
X610142Y-335242D01*
X610142Y-336908D01*
X610808Y-338575D01*
X612142Y-339408D01*
X610808Y-340242D01*
X610142Y-341908D01*
X610142Y-343575D01*
X610808Y-345242D01*
X612142Y-346075D01*
X613475Y-346075D01*
X614808Y-345242D01*
X615475Y-343575D01*
X615475Y-341908D01*
X614808Y-340242D01*
X613475Y-339408D01*
G54D10*
X600142Y-335242D02*
X600142Y-343575D01*
X600808Y-345242D01*
X602142Y-346075D01*
X603475Y-346075D01*
X604808Y-345242D01*
X605475Y-343575D01*
X605475Y-335242D01*
X604808Y-333575D01*
X603475Y-332742D01*
X602142Y-332742D01*
X600808Y-333575D01*
X600142Y-335242D01*
G54D10*
X579158Y-455042D02*
X580825Y-455708D01*
X581658Y-457042D01*
X581658Y-458375D01*
X580825Y-459708D01*
X579158Y-460375D01*
X574992Y-460375D01*
X574158Y-460375D01*
X575825Y-458375D01*
X575825Y-457042D01*
X574992Y-455708D01*
X573325Y-455042D01*
X570825Y-455042D01*
X569158Y-455708D01*
X568325Y-457042D01*
X568325Y-458375D01*
X569158Y-459708D01*
X570825Y-460375D01*
X574992Y-460375D01*
G54D10*
X574992Y-447042D02*
X574992Y-448375D01*
X575825Y-449708D01*
X577492Y-450375D01*
X579158Y-450375D01*
X580825Y-449708D01*
X581658Y-448375D01*
X581658Y-447042D01*
X580825Y-445708D01*
X579158Y-445042D01*
X577492Y-445042D01*
X575825Y-445708D01*
X574992Y-447042D01*
X574158Y-445708D01*
X572492Y-445042D01*
X570825Y-445042D01*
X569158Y-445708D01*
X568325Y-447042D01*
X568325Y-448375D01*
X569158Y-449708D01*
X570825Y-450375D01*
X572492Y-450375D01*
X574158Y-449708D01*
X574992Y-448375D01*
G54D10*
X579158Y-435042D02*
X570825Y-435042D01*
X569158Y-435708D01*
X568325Y-437042D01*
X568325Y-438375D01*
X569158Y-439708D01*
X570825Y-440375D01*
X579158Y-440375D01*
X580825Y-439708D01*
X581658Y-438375D01*
X581658Y-437042D01*
X580825Y-435708D01*
X579158Y-435042D01*
G54D11*
X35719Y-184944D02*
X34131Y-184944D01*
X34131Y-161131D01*
X35719Y-161131D01*
G54D11*
X53181Y-184944D02*
X54769Y-184944D01*
X54769Y-161131D01*
X53181Y-161131D01*
G54D11*
X183356Y-35719D02*
X183356Y-34131D01*
X207169Y-34131D01*
X207169Y-35719D01*
G54D11*
X183356Y-53181D02*
X183356Y-54769D01*
X207169Y-54769D01*
X207169Y-53181D01*
G54D11*
X183356Y-57944D02*
X183356Y-56356D01*
X207169Y-56356D01*
X207169Y-57944D01*
G54D11*
X183356Y-75406D02*
X183356Y-76994D01*
X207169Y-76994D01*
X207169Y-75406D01*
G54D11*
X81756Y-330994D02*
X81756Y-329406D01*
X105569Y-329406D01*
X105569Y-330994D01*
G54D11*
X81756Y-348456D02*
X81756Y-350044D01*
X105569Y-350044D01*
X105569Y-348456D01*
G54D11*
X170656Y-470694D02*
X170656Y-469106D01*
X194469Y-469106D01*
X194469Y-470694D01*
G54D11*
X170656Y-488156D02*
X170656Y-489744D01*
X194469Y-489744D01*
X194469Y-488156D01*
G54D11*
X61119Y-457994D02*
X59531Y-457994D01*
X59531Y-434181D01*
X61119Y-434181D01*
G54D11*
X78581Y-457994D02*
X80169Y-457994D01*
X80169Y-434181D01*
X78581Y-434181D01*
G54D11*
X248444Y-705644D02*
X246856Y-705644D01*
X246856Y-681831D01*
X248444Y-681831D01*
G54D11*
X265906Y-705644D02*
X267494Y-705644D01*
X267494Y-681831D01*
X265906Y-681831D01*
G54D11*
X313531Y-572294D02*
X313531Y-570706D01*
X337344Y-570706D01*
X337344Y-572294D01*
G54D11*
X313531Y-589756D02*
X313531Y-591344D01*
X337344Y-591344D01*
X337344Y-589756D01*
G54D11*
X313531Y-597694D02*
X313531Y-596106D01*
X337344Y-596106D01*
X337344Y-597694D01*
G54D11*
X313531Y-615156D02*
X313531Y-616744D01*
X337344Y-616744D01*
X337344Y-615156D01*
G54D11*
X313531Y-623094D02*
X313531Y-621506D01*
X337344Y-621506D01*
X337344Y-623094D01*
G54D11*
X313531Y-640556D02*
X313531Y-642144D01*
X337344Y-642144D01*
X337344Y-640556D01*
G54D11*
X205581Y-699294D02*
X205581Y-697706D01*
X229394Y-697706D01*
X229394Y-699294D01*
G54D11*
X205581Y-716756D02*
X205581Y-718344D01*
X229394Y-718344D01*
X229394Y-716756D01*
G54D11*
X564356Y-330994D02*
X564356Y-329406D01*
X588169Y-329406D01*
X588169Y-330994D01*
G54D11*
X564356Y-348456D02*
X564356Y-350044D01*
X588169Y-350044D01*
X588169Y-348456D01*
G54D11*
X665956Y-35719D02*
X665956Y-34131D01*
X689769Y-34131D01*
X689769Y-35719D01*
G54D11*
X665956Y-53181D02*
X665956Y-54769D01*
X689769Y-54769D01*
X689769Y-53181D01*
G54D11*
X665956Y-57944D02*
X665956Y-56356D01*
X689769Y-56356D01*
X689769Y-57944D01*
G54D11*
X665956Y-75406D02*
X665956Y-76994D01*
X689769Y-76994D01*
X689769Y-75406D01*
G54D11*
X518319Y-184944D02*
X516731Y-184944D01*
X516731Y-161131D01*
X518319Y-161131D01*
G54D11*
X535781Y-184944D02*
X537369Y-184944D01*
X537369Y-161131D01*
X535781Y-161131D01*
G54D11*
X543719Y-457994D02*
X542131Y-457994D01*
X542131Y-434181D01*
X543719Y-434181D01*
G54D11*
X561181Y-457994D02*
X562769Y-457994D01*
X562769Y-434181D01*
X561181Y-434181D01*
G54D11*
X358775Y-661194D02*
X358775Y-658812D01*
X403225Y-658812D01*
X403225Y-661194D01*
G54D11*
X358775Y-685006D02*
X358775Y-687388D01*
X403225Y-687388D01*
X403225Y-685006D01*
G54D11*
X386556Y-682625D02*
X386556Y-663575D01*
G54D11*
X384969Y-673100D02*
X375444Y-663575D01*
X375444Y-682625D01*
X384969Y-673100D01*
G54D11*
X73025Y-327025D02*
X146050Y-327025D01*
X146050Y-352425D01*
X73025Y-352425D01*
X73025Y-327025D01*
G54D11*
X161925Y-444500D02*
X203200Y-444500D01*
X203200Y-492125D01*
X161925Y-492125D01*
X161925Y-444500D01*
G54D11*
X555625Y-327025D02*
X628650Y-327025D01*
X628650Y-352425D01*
X555625Y-352425D01*
X555625Y-327025D01*
G54D11*
X35719Y-229394D02*
X34131Y-229394D01*
X34131Y-205581D01*
X35719Y-205581D01*
G54D11*
X53181Y-229394D02*
X54769Y-229394D01*
X54769Y-205581D01*
X53181Y-205581D01*
G54D10*
X15875Y-223267D02*
X15875Y-228600D01*
X16708Y-228600D01*
X18375Y-227933D01*
X23375Y-223933D01*
X25042Y-223267D01*
X26708Y-223267D01*
X28375Y-223933D01*
X29208Y-225267D01*
X29208Y-226600D01*
X28375Y-227933D01*
X26708Y-228600D01*
G54D10*
X15875Y-213267D02*
X15875Y-218600D01*
X16708Y-218600D01*
X18375Y-217933D01*
X23375Y-213933D01*
X25042Y-213267D01*
X26708Y-213267D01*
X28375Y-213933D01*
X29208Y-215267D01*
X29208Y-216600D01*
X28375Y-217933D01*
X26708Y-218600D01*
G54D10*
X15875Y-208600D02*
X29208Y-208600D01*
G54D10*
X20875Y-206600D02*
X15875Y-204600D01*
G54D10*
X19208Y-208600D02*
X23375Y-204600D01*
G54D11*
X518319Y-229394D02*
X516731Y-229394D01*
X516731Y-205581D01*
X518319Y-205581D01*
G54D11*
X535781Y-229394D02*
X537369Y-229394D01*
X537369Y-205581D01*
X535781Y-205581D01*
G54D10*
X498475Y-223267D02*
X498475Y-228600D01*
X499308Y-228600D01*
X500975Y-227933D01*
X505975Y-223933D01*
X507642Y-223267D01*
X509308Y-223267D01*
X510975Y-223933D01*
X511808Y-225267D01*
X511808Y-226600D01*
X510975Y-227933D01*
X509308Y-228600D01*
G54D10*
X498475Y-213267D02*
X498475Y-218600D01*
X499308Y-218600D01*
X500975Y-217933D01*
X505975Y-213933D01*
X507642Y-213267D01*
X509308Y-213267D01*
X510975Y-213933D01*
X511808Y-215267D01*
X511808Y-216600D01*
X510975Y-217933D01*
X509308Y-218600D01*
G54D10*
X498475Y-208600D02*
X511808Y-208600D01*
G54D10*
X503475Y-206600D02*
X498475Y-204600D01*
G54D10*
X501808Y-208600D02*
X505975Y-204600D01*
M02*
