%FSLAX34Y34*%
%MOMM*%
%LNSILK_TOP*%
G71*
G01*
%ADD10C, 0.20*%
%ADD11C, 0.24*%
%ADD12C, 0.30*%
%ADD13C, 0.60*%
%ADD14C, 0.50*%
%ADD15C, 1.00*%
%LPD*%
G54D10*
X300512Y-13962D02*
X194150Y-13962D01*
G54D10*
X300512Y-13962D02*
X300512Y-60000D01*
X279081Y-60000D01*
G54D10*
X282575Y-77000D02*
X282575Y-61125D01*
G54D10*
X247575Y-77000D02*
X247575Y-61125D01*
G54D10*
X212575Y-77000D02*
X212575Y-61212D01*
G54D10*
X110650Y-380325D02*
X110650Y-123500D01*
X30650Y-123500D01*
X30650Y-380325D01*
X110650Y-380325D01*
G54D10*
X90650Y-342875D02*
X50650Y-342875D01*
G54D10*
X90650Y-336050D02*
X50650Y-336050D01*
G54D10*
X70650Y-342875D02*
X70650Y-350325D01*
G54D10*
X70650Y-336050D02*
X70650Y-328125D01*
G54D10*
X293700Y-153925D02*
X293700Y-169925D01*
G54D10*
X290500Y-153925D02*
X290500Y-169925D01*
G54D10*
X306400Y-161925D02*
X293700Y-161925D01*
G54D10*
X290500Y-161925D02*
X277800Y-161925D01*
G54D11*
X101600Y-58342D02*
X104933Y-53342D01*
X104933Y-66675D01*
G54D11*
X114933Y-55842D02*
X114933Y-64175D01*
X114267Y-65842D01*
X112933Y-66675D01*
X111600Y-66675D01*
X110267Y-65842D01*
X109600Y-64175D01*
X109600Y-55842D01*
X110267Y-54175D01*
X111600Y-53342D01*
X112933Y-53342D01*
X114267Y-54175D01*
X114933Y-55842D01*
G54D11*
X124933Y-55842D02*
X124933Y-64175D01*
X124267Y-65842D01*
X122933Y-66675D01*
X121600Y-66675D01*
X120267Y-65842D01*
X119600Y-64175D01*
X119600Y-55842D01*
X120267Y-54175D01*
X121600Y-53342D01*
X122933Y-53342D01*
X124267Y-54175D01*
X124933Y-55842D01*
G54D11*
X133600Y-59175D02*
X133600Y-66675D01*
G54D11*
X133600Y-65008D02*
X132933Y-66342D01*
X131600Y-66675D01*
X130267Y-66342D01*
X129600Y-65008D01*
X129600Y-59175D01*
G54D11*
X398067Y-327025D02*
X393067Y-323692D01*
X406400Y-323692D01*
G54D11*
X406400Y-319025D02*
X393067Y-319025D01*
X406400Y-313692D01*
X393067Y-313692D01*
G54D11*
X406400Y-305025D02*
X393067Y-305025D01*
X401400Y-309025D01*
X403067Y-309025D01*
X403067Y-303692D01*
G54D11*
X395567Y-293692D02*
X403900Y-293692D01*
X405567Y-294358D01*
X406400Y-295692D01*
X406400Y-297025D01*
X405567Y-298358D01*
X403900Y-299025D01*
X395567Y-299025D01*
X393900Y-298358D01*
X393067Y-297025D01*
X393067Y-295692D01*
X393900Y-294358D01*
X395567Y-293692D01*
G54D11*
X395567Y-283692D02*
X403900Y-283692D01*
X405567Y-284358D01*
X406400Y-285692D01*
X406400Y-287025D01*
X405567Y-288358D01*
X403900Y-289025D01*
X395567Y-289025D01*
X393900Y-288358D01*
X393067Y-287025D01*
X393067Y-285692D01*
X393900Y-284358D01*
X395567Y-283692D01*
G54D11*
X406400Y-275025D02*
X393067Y-275025D01*
X401400Y-279025D01*
X403067Y-279025D01*
X403067Y-273692D01*
G54D11*
X62483Y-117475D02*
X57150Y-117475D01*
X57150Y-116642D01*
X57817Y-114975D01*
X61817Y-109975D01*
X62483Y-108308D01*
X62483Y-106642D01*
X61817Y-104975D01*
X60483Y-104142D01*
X59150Y-104142D01*
X57817Y-104975D01*
X57150Y-106642D01*
G54D11*
X68483Y-117475D02*
X68483Y-119142D01*
X67817Y-120808D01*
X67150Y-120808D01*
G54D11*
X78483Y-117475D02*
X73150Y-117475D01*
X73150Y-116642D01*
X73817Y-114975D01*
X77817Y-109975D01*
X78483Y-108308D01*
X78483Y-106642D01*
X77817Y-104975D01*
X76483Y-104142D01*
X75150Y-104142D01*
X73817Y-104975D01*
X73150Y-106642D01*
G54D11*
X87150Y-109975D02*
X87150Y-117475D01*
G54D11*
X87150Y-115808D02*
X86483Y-117142D01*
X85150Y-117475D01*
X83817Y-117142D01*
X83150Y-115808D01*
X83150Y-109975D01*
G54D11*
X310642Y-57150D02*
X310642Y-43817D01*
G54D11*
X307975Y-43817D02*
X313308Y-43817D01*
G54D11*
X317975Y-57150D02*
X317975Y-43817D01*
X321308Y-43817D01*
X322642Y-44650D01*
X323308Y-46317D01*
X323308Y-54650D01*
X322642Y-56317D01*
X321308Y-57150D01*
X317975Y-57150D01*
G54D11*
X327975Y-57150D02*
X331308Y-43817D01*
X334642Y-57150D01*
G54D11*
X329308Y-52150D02*
X333308Y-52150D01*
G54D11*
X344642Y-57150D02*
X339309Y-57150D01*
X339309Y-56317D01*
X339976Y-54650D01*
X343976Y-49650D01*
X344642Y-47983D01*
X344642Y-46317D01*
X343976Y-44650D01*
X342642Y-43817D01*
X341309Y-43817D01*
X339976Y-44650D01*
X339309Y-46317D01*
G54D11*
X354642Y-46317D02*
X354642Y-54650D01*
X353976Y-56317D01*
X352642Y-57150D01*
X351309Y-57150D01*
X349976Y-56317D01*
X349309Y-54650D01*
X349309Y-46317D01*
X349976Y-44650D01*
X351309Y-43817D01*
X352642Y-43817D01*
X353976Y-44650D01*
X354642Y-46317D01*
G54D11*
X364642Y-43817D02*
X359309Y-43817D01*
X359309Y-49650D01*
X359976Y-49650D01*
X361309Y-48817D01*
X362642Y-48817D01*
X363976Y-49650D01*
X364642Y-51317D01*
X364642Y-54650D01*
X363976Y-56317D01*
X362642Y-57150D01*
X361309Y-57150D01*
X359976Y-56317D01*
X359309Y-54650D01*
G54D11*
X374642Y-46317D02*
X374642Y-54650D01*
X373976Y-56317D01*
X372642Y-57150D01*
X371309Y-57150D01*
X369976Y-56317D01*
X369309Y-54650D01*
X369309Y-46317D01*
X369976Y-44650D01*
X371309Y-43817D01*
X372642Y-43817D01*
X373976Y-44650D01*
X374642Y-46317D01*
G54D12*
X274638Y-307975D02*
X300038Y-307975D01*
G54D12*
X287338Y-320675D02*
X287338Y-295275D01*
G54D12*
X195262Y-307975D02*
X220662Y-307975D01*
G54D12*
X247650Y-295375D02*
X247650Y-320775D01*
G54D12*
X234950Y-320775D02*
X260350Y-320775D01*
G54D10*
G75*
G01X367300Y-231775D02*
G03X367300Y-231775I-50000J0D01*
G01*
G54D10*
G75*
G01X228097Y-230911D02*
G03X228097Y-230911I-50000J0D01*
G01*
G54D10*
G75*
G01X172425Y-79400D02*
G03X172425Y-79400I-42500J0D01*
G01*
G54D10*
X194150Y-13962D02*
X194150Y-60397D01*
X216375Y-60397D01*
G54D10*
X244156Y-60000D02*
X251300Y-60000D01*
G54D11*
X122808Y-387350D02*
X117475Y-387350D01*
X117475Y-386517D01*
X118142Y-384850D01*
X122142Y-379850D01*
X122808Y-378183D01*
X122808Y-376517D01*
X122142Y-374850D01*
X120808Y-374017D01*
X119475Y-374017D01*
X118142Y-374850D01*
X117475Y-376517D01*
G54D11*
X132808Y-387350D02*
X127475Y-387350D01*
X127475Y-386517D01*
X128142Y-384850D01*
X132142Y-379850D01*
X132808Y-378183D01*
X132808Y-376517D01*
X132142Y-374850D01*
X130808Y-374017D01*
X129475Y-374017D01*
X128142Y-374850D01*
X127475Y-376517D01*
G54D11*
X142808Y-376517D02*
X142808Y-384850D01*
X142142Y-386517D01*
X140808Y-387350D01*
X139475Y-387350D01*
X138142Y-386517D01*
X137475Y-384850D01*
X137475Y-376517D01*
X138142Y-374850D01*
X139475Y-374017D01*
X140808Y-374017D01*
X142142Y-374850D01*
X142808Y-376517D01*
G54D11*
X147475Y-379850D02*
X147475Y-390683D01*
G54D11*
X147475Y-384850D02*
X148142Y-387017D01*
X149475Y-387350D01*
X150808Y-387017D01*
X151475Y-385350D01*
X151475Y-382017D01*
X150808Y-380350D01*
X149475Y-379850D01*
X148142Y-380350D01*
X147475Y-382350D01*
G54D10*
X315800Y-423300D02*
X446400Y-423200D01*
X446400Y-719900D01*
X315800Y-720000D01*
X315800Y-423400D01*
G54D10*
X362100Y-698500D02*
X371700Y-698500D01*
G54D10*
X400300Y-698500D02*
X390700Y-698500D01*
G36*
X371700Y-704900D02*
X371700Y-692100D01*
X390700Y-692100D01*
X390700Y-704900D01*
X371700Y-704900D01*
G37*
G54D10*
X371700Y-704900D02*
X371700Y-692100D01*
X390700Y-692100D01*
X390700Y-704900D01*
X371700Y-704900D01*
G54D10*
X360700Y-495500D02*
X368100Y-495500D01*
X368300Y-495300D01*
X393700Y-520700D01*
G54D10*
X386700Y-516600D02*
X386700Y-545700D01*
X387000Y-546000D01*
X400500Y-546000D01*
G54D10*
X393700Y-495300D02*
X393700Y-444500D01*
X400600Y-444500D01*
X400700Y-444400D01*
G54D11*
X187325Y-534592D02*
X190658Y-529592D01*
X190658Y-542925D01*
G54D11*
X200658Y-532092D02*
X200658Y-540425D01*
X199992Y-542092D01*
X198658Y-542925D01*
X197325Y-542925D01*
X195992Y-542092D01*
X195325Y-540425D01*
X195325Y-532092D01*
X195992Y-530425D01*
X197325Y-529592D01*
X198658Y-529592D01*
X199992Y-530425D01*
X200658Y-532092D01*
G54D11*
X210658Y-532092D02*
X210658Y-540425D01*
X209992Y-542092D01*
X208658Y-542925D01*
X207325Y-542925D01*
X205992Y-542092D01*
X205325Y-540425D01*
X205325Y-532092D01*
X205992Y-530425D01*
X207325Y-529592D01*
X208658Y-529592D01*
X209992Y-530425D01*
X210658Y-532092D01*
G54D11*
X219325Y-535425D02*
X219325Y-542925D01*
G54D11*
X219325Y-541258D02*
X218658Y-542592D01*
X217325Y-542925D01*
X215992Y-542592D01*
X215325Y-541258D01*
X215325Y-535425D01*
G54D10*
X270600Y-720625D02*
X270600Y-517625D01*
X300781Y-517525D01*
X300982Y-720725D01*
X270600Y-720625D01*
G54D10*
X281981Y-719138D02*
X281981Y-720725D01*
G54D10*
X281981Y-696912D02*
X281981Y-693738D01*
G54D10*
X281981Y-671512D02*
X281981Y-668338D01*
G54D10*
X281981Y-646112D02*
X281981Y-642938D01*
G54D10*
X281981Y-620712D02*
X281981Y-617538D01*
G54D10*
X281981Y-595312D02*
X281981Y-592138D01*
G54D10*
X281981Y-569912D02*
X281981Y-566738D01*
G54D10*
X281981Y-544512D02*
X281981Y-541338D01*
G54D10*
X300238Y-519112D02*
X271662Y-519113D01*
G54D11*
X187325Y-661592D02*
X190658Y-656592D01*
X190658Y-669925D01*
G54D11*
X200658Y-659092D02*
X200658Y-667425D01*
X199992Y-669092D01*
X198658Y-669925D01*
X197325Y-669925D01*
X195992Y-669092D01*
X195325Y-667425D01*
X195325Y-659092D01*
X195992Y-657425D01*
X197325Y-656592D01*
X198658Y-656592D01*
X199992Y-657425D01*
X200658Y-659092D01*
G54D11*
X210658Y-659092D02*
X210658Y-667425D01*
X209992Y-669092D01*
X208658Y-669925D01*
X207325Y-669925D01*
X205992Y-669092D01*
X205325Y-667425D01*
X205325Y-659092D01*
X205992Y-657425D01*
X207325Y-656592D01*
X208658Y-656592D01*
X209992Y-657425D01*
X210658Y-659092D01*
G54D11*
X219325Y-662425D02*
X219325Y-669925D01*
G54D11*
X219325Y-668258D02*
X218658Y-669592D01*
X217325Y-669925D01*
X215992Y-669592D01*
X215325Y-668258D01*
X215325Y-662425D01*
G54D11*
X351043Y-571633D02*
X354376Y-566633D01*
X354376Y-579966D01*
G54D11*
X364376Y-579966D02*
X359043Y-579966D01*
X359043Y-579133D01*
X359710Y-577466D01*
X363710Y-572466D01*
X364376Y-570800D01*
X364376Y-569133D01*
X363710Y-567466D01*
X362376Y-566633D01*
X361043Y-566633D01*
X359710Y-567466D01*
X359043Y-569133D01*
G54D11*
X369043Y-566633D02*
X372376Y-579966D01*
X375710Y-566633D01*
G54D11*
X385177Y-571633D02*
X388510Y-566633D01*
X388510Y-579966D01*
G54D11*
X398510Y-569133D02*
X398510Y-577466D01*
X397844Y-579133D01*
X396510Y-579966D01*
X395177Y-579966D01*
X393844Y-579133D01*
X393177Y-577466D01*
X393177Y-569133D01*
X393844Y-567466D01*
X395177Y-566633D01*
X396510Y-566633D01*
X397844Y-567466D01*
X398510Y-569133D01*
G54D11*
X403177Y-579966D02*
X406510Y-566633D01*
X409844Y-579966D01*
G54D11*
X404510Y-574966D02*
X408510Y-574966D01*
G54D11*
X259200Y-643700D02*
X266700Y-643700D01*
G54D11*
X265033Y-643700D02*
X266367Y-644367D01*
X266700Y-645700D01*
X266367Y-647033D01*
X265033Y-647700D01*
X259200Y-647700D01*
G54D11*
X266700Y-639033D02*
X253367Y-639033D01*
X253367Y-635700D01*
X254200Y-634366D01*
X255867Y-633700D01*
X257533Y-633700D01*
X259200Y-634366D01*
X260033Y-635700D01*
X260033Y-639033D01*
G54D11*
X264200Y-623700D02*
X265867Y-624366D01*
X266700Y-625700D01*
X266700Y-627033D01*
X265867Y-628366D01*
X264200Y-629033D01*
X255867Y-629033D01*
X254200Y-628366D01*
X253367Y-627033D01*
X253367Y-625700D01*
X254200Y-624366D01*
X255867Y-623700D01*
G54D11*
X258367Y-619033D02*
X253367Y-615700D01*
X266700Y-615700D01*
G54D11*
X266700Y-605700D02*
X266700Y-611033D01*
X265867Y-611033D01*
X264200Y-610366D01*
X259200Y-606366D01*
X257533Y-605700D01*
X255867Y-605700D01*
X254200Y-606366D01*
X253367Y-607700D01*
X253367Y-609033D01*
X254200Y-610366D01*
X255867Y-611033D01*
G54D11*
X255867Y-601033D02*
X254200Y-600366D01*
X253367Y-599033D01*
X253367Y-597700D01*
X254200Y-596366D01*
X255867Y-595700D01*
X257533Y-595700D01*
X259200Y-596366D01*
X260033Y-597700D01*
X260867Y-596366D01*
X262533Y-595700D01*
X264200Y-595700D01*
X265867Y-596366D01*
X266700Y-597700D01*
X266700Y-599033D01*
X265867Y-600366D01*
X264200Y-601033D01*
G54D11*
X253367Y-591033D02*
X253367Y-585700D01*
X255033Y-586366D01*
X257533Y-587700D01*
X260867Y-589033D01*
X263367Y-589700D01*
X266700Y-589700D01*
G54D10*
X111125Y-390525D02*
X111125Y-441325D01*
X28575Y-441325D01*
X28575Y-390525D01*
X111125Y-390525D01*
G36*
X194150Y-13962D02*
X194150Y-25075D01*
X300512Y-25075D01*
X300512Y-13962D01*
X194150Y-13962D01*
G37*
G54D10*
X194150Y-13962D02*
X194150Y-25075D01*
X300512Y-25075D01*
X300512Y-13962D01*
X194150Y-13962D01*
G54D10*
G75*
G01X161525Y-633820D02*
G03X161525Y-604430I20225J14695D01*
G01*
G54D10*
X161550Y-633425D02*
X161550Y-604825D01*
G54D10*
X95250Y-454025D02*
X44450Y-454025D01*
G54D10*
X107950Y-449262D02*
X31750Y-449262D01*
X31750Y-514350D01*
X107950Y-514350D01*
X107950Y-449262D01*
G54D10*
X44450Y-449262D02*
X44450Y-457200D01*
X95250Y-457200D01*
X95250Y-449262D01*
G54D10*
X149225Y-63500D02*
X149225Y-50800D01*
G54D10*
X142875Y-57150D02*
X155575Y-57150D01*
G54D10*
X149225Y-107950D02*
X149225Y-95250D01*
G54D10*
X142875Y-101600D02*
X155575Y-101600D01*
G54D13*
G75*
G01X93419Y-58150D02*
G03X93419Y-100650I36806J-21250D01*
G01*
G54D10*
X342900Y-215900D02*
X342900Y-203200D01*
G54D10*
X336550Y-209550D02*
X349250Y-209550D01*
G54D10*
X342900Y-260350D02*
X342900Y-247650D01*
G54D10*
X336550Y-254000D02*
X349250Y-254000D01*
G54D13*
G75*
G01X274224Y-206825D02*
G03X274224Y-256825I43301J-25000D01*
G01*
G54D13*
G75*
G01X135021Y-205961D02*
G03X135021Y-255961I43301J-25000D01*
G01*
G54D10*
X203697Y-215036D02*
X203697Y-202336D01*
G54D10*
X197347Y-208686D02*
X210047Y-208686D01*
G54D10*
X203697Y-259486D02*
X203697Y-246786D01*
G54D10*
X197347Y-253136D02*
X210047Y-253136D01*
G54D10*
X183992Y-382588D02*
X310992Y-382588D01*
G54D10*
X310992Y-403225D02*
X310992Y-407988D01*
G54D10*
X310992Y-414338D02*
X310992Y-419100D01*
G54D10*
X183992Y-403225D02*
X183992Y-407988D01*
G54D10*
X183992Y-414338D02*
X183992Y-419100D01*
G54D10*
X310992Y-419100D02*
X304642Y-419100D01*
G54D10*
X295116Y-419100D02*
X287179Y-419100D01*
G54D10*
X183992Y-419100D02*
X190342Y-419100D01*
G54D10*
X199866Y-419100D02*
X207804Y-419100D01*
G54D10*
X269716Y-419100D02*
X277654Y-419100D01*
G54D10*
X252254Y-419100D02*
X260192Y-419100D01*
G54D10*
X217329Y-419100D02*
X225266Y-419100D01*
G54D10*
X234792Y-419100D02*
X242729Y-419100D01*
G54D10*
X310992Y-403225D02*
X183992Y-403225D01*
X183992Y-288925D01*
X310992Y-288925D01*
X310992Y-403225D01*
G54D10*
X327900Y-146050D02*
X327900Y-177800D01*
X256300Y-177800D01*
X256300Y-146050D01*
X327900Y-146050D01*
G54D10*
X204800Y-153925D02*
X204800Y-169925D01*
G54D10*
X201600Y-153925D02*
X201600Y-169925D01*
G54D10*
X217500Y-161925D02*
X204800Y-161925D01*
G54D10*
X201600Y-161925D02*
X188900Y-161925D01*
G54D10*
X239000Y-146050D02*
X239000Y-177800D01*
X167400Y-177800D01*
X167400Y-146050D01*
X239000Y-146050D01*
G54D10*
X395288Y-136525D02*
X449262Y-136525D01*
X449262Y-288925D01*
X395288Y-288925D01*
X395288Y-136525D01*
G54D10*
X422275Y-136525D02*
X422275Y-123825D01*
G54D10*
X422275Y-301625D02*
X422275Y-288925D01*
G54D10*
X330200Y-344487D02*
X339725Y-354012D01*
X320676Y-354012D01*
X330200Y-344487D01*
G54D10*
X339725Y-344487D02*
X320675Y-344488D01*
G54D10*
X342900Y-377825D02*
X342900Y-320675D01*
X317500Y-320675D01*
X317500Y-377825D01*
X342900Y-377825D01*
G54D10*
X330200Y-354012D02*
X330200Y-387350D01*
G54D10*
X330200Y-344487D02*
X330200Y-311150D01*
G36*
X342900Y-320675D02*
X342900Y-331788D01*
X317500Y-331788D01*
X317500Y-320675D01*
X342900Y-320675D01*
G37*
G54D10*
X342900Y-320675D02*
X342900Y-331788D01*
X317500Y-331788D01*
X317500Y-320675D01*
X342900Y-320675D01*
G54D10*
X377825Y-303213D02*
X387350Y-293688D01*
X368300Y-293688D01*
X377825Y-303213D01*
G54D10*
X387350Y-303213D02*
X368300Y-303212D01*
G54D10*
X390525Y-269875D02*
X390525Y-327025D01*
X365125Y-327025D01*
X365125Y-269875D01*
X390525Y-269875D01*
G54D10*
X377825Y-293688D02*
X377825Y-260350D01*
G54D10*
X377825Y-303213D02*
X377826Y-336550D01*
G36*
X390525Y-327025D02*
X390525Y-315912D01*
X365125Y-315912D01*
X365125Y-327025D01*
X390525Y-327025D01*
G37*
G54D10*
X390525Y-327025D02*
X390525Y-315912D01*
X365125Y-315912D01*
X365125Y-327025D01*
X390525Y-327025D01*
G54D10*
X411175Y-366650D02*
X411175Y-382650D01*
G54D10*
X407975Y-366650D02*
X407975Y-382650D01*
G54D10*
X423875Y-374650D02*
X411175Y-374650D01*
G54D10*
X407975Y-374650D02*
X395275Y-374650D01*
G54D10*
X445375Y-358775D02*
X445375Y-390525D01*
X373775Y-390525D01*
X373775Y-358775D01*
X445375Y-358775D01*
G54D10*
G75*
G01X254975Y-555650D02*
G03X254975Y-555650I-42500J0D01*
G01*
G54D10*
X231775Y-539750D02*
X231775Y-527050D01*
G54D10*
X225425Y-533400D02*
X238125Y-533400D01*
G54D10*
X231775Y-584200D02*
X231775Y-571500D01*
G54D10*
X225425Y-577850D02*
X238125Y-577850D01*
G54D13*
G75*
G01X175969Y-534400D02*
G03X175969Y-576900I36806J-21250D01*
G01*
G54D10*
G75*
G01X254975Y-682650D02*
G03X254975Y-682650I-42500J0D01*
G01*
G54D10*
X231775Y-666750D02*
X231775Y-654050D01*
G54D10*
X225425Y-660400D02*
X238125Y-660400D01*
G54D10*
X231775Y-711200D02*
X231775Y-698500D01*
G54D10*
X225425Y-704850D02*
X238125Y-704850D01*
G54D13*
G75*
G01X175969Y-661400D02*
G03X175969Y-703900I36806J-21250D01*
G01*
G54D10*
X120650Y-454025D02*
X146050Y-454025D01*
G54D10*
X107950Y-514350D02*
X158750Y-514350D01*
X158750Y-449262D01*
X107950Y-449262D01*
X107950Y-514350D01*
G54D10*
X120650Y-449262D02*
X120650Y-457200D01*
X146050Y-457200D01*
X146050Y-449262D01*
G54D11*
X46125Y-533400D02*
X46125Y-520067D01*
X49458Y-520067D01*
X50792Y-520900D01*
X51458Y-522567D01*
X51458Y-524233D01*
X50792Y-525900D01*
X49458Y-526733D01*
X50792Y-527567D01*
X51458Y-529233D01*
X51458Y-530900D01*
X50792Y-532567D01*
X49458Y-533400D01*
X46125Y-533400D01*
G54D11*
X46125Y-526733D02*
X49458Y-526733D01*
G54D11*
X56125Y-520067D02*
X62792Y-533400D01*
G54D11*
X56125Y-533400D02*
X62792Y-520067D01*
G54D11*
X72792Y-522567D02*
X72792Y-530900D01*
X72126Y-532567D01*
X70792Y-533400D01*
X69459Y-533400D01*
X68126Y-532567D01*
X67459Y-530900D01*
X67459Y-522567D01*
X68126Y-520900D01*
X69459Y-520067D01*
X70792Y-520067D01*
X72126Y-520900D01*
X72792Y-522567D01*
G54D11*
X77459Y-533400D02*
X77459Y-531733D01*
X84126Y-531733D01*
X84126Y-533400D01*
G54D11*
X78792Y-531733D02*
X78792Y-522567D01*
X80792Y-520067D01*
X82792Y-520067D01*
X82792Y-531733D01*
G54D11*
X106777Y-521757D02*
X108110Y-520090D01*
X109444Y-520090D01*
X110777Y-521757D01*
X110777Y-524257D01*
X109444Y-525924D01*
X108110Y-525924D01*
X109444Y-525924D01*
X110777Y-527590D01*
X110777Y-531757D01*
X109444Y-533424D01*
X106777Y-533424D01*
X105444Y-531757D01*
G54D11*
X115444Y-533424D02*
X118777Y-520090D01*
X122110Y-533424D01*
G54D11*
X116777Y-528424D02*
X120777Y-528424D01*
G54D11*
X126778Y-520090D02*
X126778Y-533424D01*
X134778Y-533424D01*
X134778Y-535090D01*
G54D11*
X130111Y-520090D02*
X130111Y-533424D01*
G54D11*
X133444Y-520090D02*
X133444Y-533424D01*
G54D11*
X139444Y-520090D02*
X139444Y-533424D01*
X144778Y-520090D01*
X144778Y-533424D01*
G54D11*
X152111Y-533424D02*
X152111Y-520090D01*
G54D11*
X149444Y-520090D02*
X154778Y-520090D01*
G54D11*
X159444Y-533424D02*
X162778Y-520090D01*
X166111Y-533424D01*
G54D11*
X160778Y-528424D02*
X164778Y-528424D01*
G54D11*
X212725Y-285750D02*
X212725Y-272417D01*
X218058Y-272417D01*
X218058Y-285750D01*
G54D11*
X222725Y-272417D02*
X222725Y-285750D01*
X228058Y-272417D01*
X228058Y-285750D01*
G54D11*
X235392Y-285750D02*
X235392Y-272417D01*
G54D11*
X232725Y-272417D02*
X238058Y-272417D01*
G54D11*
X242725Y-285750D02*
X246058Y-272417D01*
X249392Y-285750D01*
G54D11*
X244058Y-280750D02*
X248058Y-280750D01*
G54D11*
X254059Y-285750D02*
X254059Y-272417D01*
G54D11*
X259392Y-285750D02*
X259392Y-272417D01*
G54D11*
X254059Y-279083D02*
X259392Y-279083D01*
G54D11*
X264059Y-272417D02*
X264059Y-285750D01*
X269392Y-272417D01*
X269392Y-285750D01*
G54D11*
X278726Y-285750D02*
X274059Y-285750D01*
X274059Y-272417D01*
X278726Y-272417D01*
G54D11*
X274059Y-279083D02*
X278726Y-279083D01*
G54D11*
X180975Y-489634D02*
X167642Y-489634D01*
X167642Y-486300D01*
X168475Y-484967D01*
X170142Y-484300D01*
X171808Y-484300D01*
X173475Y-484967D01*
X174308Y-486300D01*
X175142Y-484967D01*
X176808Y-484300D01*
X178475Y-484300D01*
X180142Y-484967D01*
X180975Y-486300D01*
X180975Y-489634D01*
G54D11*
X174308Y-489634D02*
X174308Y-486300D01*
G54D11*
X167642Y-479634D02*
X180975Y-479634D01*
X180975Y-476967D01*
X179308Y-475634D01*
X174308Y-475634D01*
X172642Y-476967D01*
X172642Y-479634D01*
G54D11*
X180975Y-472967D02*
X167642Y-472967D01*
G54D11*
X167642Y-468300D02*
X180975Y-461633D01*
G54D11*
X180975Y-468300D02*
X167642Y-461633D01*
G54D11*
X170142Y-451632D02*
X178475Y-451632D01*
X180142Y-452299D01*
X180975Y-453632D01*
X180975Y-454966D01*
X180142Y-456299D01*
X178475Y-456966D01*
X170142Y-456966D01*
X168475Y-456299D01*
X167642Y-454966D01*
X167642Y-453632D01*
X168475Y-452299D01*
X170142Y-451632D01*
G54D11*
X180975Y-446966D02*
X179308Y-446966D01*
X179308Y-440299D01*
X180975Y-440299D01*
G54D11*
X179308Y-445632D02*
X170142Y-445632D01*
X167642Y-443632D01*
X167642Y-441632D01*
X179308Y-441632D01*
G54D11*
X189483Y-142875D02*
X184150Y-142875D01*
X184150Y-142042D01*
X184817Y-140375D01*
X188817Y-135375D01*
X189483Y-133708D01*
X189483Y-132042D01*
X188817Y-130375D01*
X187483Y-129542D01*
X186150Y-129542D01*
X184817Y-130375D01*
X184150Y-132042D01*
G54D11*
X199483Y-142875D02*
X194150Y-142875D01*
X194150Y-142042D01*
X194817Y-140375D01*
X198817Y-135375D01*
X199483Y-133708D01*
X199483Y-132042D01*
X198817Y-130375D01*
X197483Y-129542D01*
X196150Y-129542D01*
X194817Y-130375D01*
X194150Y-132042D01*
G54D11*
X209483Y-132042D02*
X209483Y-140375D01*
X208817Y-142042D01*
X207483Y-142875D01*
X206150Y-142875D01*
X204817Y-142042D01*
X204150Y-140375D01*
X204150Y-132042D01*
X204817Y-130375D01*
X206150Y-129542D01*
X207483Y-129542D01*
X208817Y-130375D01*
X209483Y-132042D01*
G54D11*
X214150Y-142875D02*
X214150Y-135375D01*
G54D11*
X214150Y-137042D02*
X214817Y-135875D01*
X216150Y-135375D01*
X217483Y-135875D01*
X218150Y-137042D01*
X218150Y-142875D01*
G54D11*
X281558Y-142875D02*
X276225Y-142875D01*
X276225Y-142042D01*
X276892Y-140375D01*
X280892Y-135375D01*
X281558Y-133708D01*
X281558Y-132042D01*
X280892Y-130375D01*
X279558Y-129542D01*
X278225Y-129542D01*
X276892Y-130375D01*
X276225Y-132042D01*
G54D11*
X291558Y-142875D02*
X286225Y-142875D01*
X286225Y-142042D01*
X286892Y-140375D01*
X290892Y-135375D01*
X291558Y-133708D01*
X291558Y-132042D01*
X290892Y-130375D01*
X289558Y-129542D01*
X288225Y-129542D01*
X286892Y-130375D01*
X286225Y-132042D01*
G54D11*
X301558Y-132042D02*
X301558Y-140375D01*
X300892Y-142042D01*
X299558Y-142875D01*
X298225Y-142875D01*
X296892Y-142042D01*
X296225Y-140375D01*
X296225Y-132042D01*
X296892Y-130375D01*
X298225Y-129542D01*
X299558Y-129542D01*
X300892Y-130375D01*
X301558Y-132042D01*
G54D11*
X306225Y-142875D02*
X306225Y-135375D01*
G54D11*
X306225Y-137042D02*
X306892Y-135875D01*
X308225Y-135375D01*
X309558Y-135875D01*
X310225Y-137042D01*
X310225Y-142875D01*
G54D11*
X285750Y-207567D02*
X289083Y-202567D01*
X289083Y-215900D01*
G54D11*
X299083Y-205067D02*
X299083Y-213400D01*
X298417Y-215067D01*
X297083Y-215900D01*
X295750Y-215900D01*
X294417Y-215067D01*
X293750Y-213400D01*
X293750Y-205067D01*
X294417Y-203400D01*
X295750Y-202567D01*
X297083Y-202567D01*
X298417Y-203400D01*
X299083Y-205067D01*
G54D11*
X309083Y-205067D02*
X309083Y-213400D01*
X308417Y-215067D01*
X307083Y-215900D01*
X305750Y-215900D01*
X304417Y-215067D01*
X303750Y-213400D01*
X303750Y-205067D01*
X304417Y-203400D01*
X305750Y-202567D01*
X307083Y-202567D01*
X308417Y-203400D01*
X309083Y-205067D01*
G54D11*
X319083Y-205067D02*
X319083Y-213400D01*
X318417Y-215067D01*
X317083Y-215900D01*
X315750Y-215900D01*
X314417Y-215067D01*
X313750Y-213400D01*
X313750Y-205067D01*
X314417Y-203400D01*
X315750Y-202567D01*
X317083Y-202567D01*
X318417Y-203400D01*
X319083Y-205067D01*
G54D11*
X327750Y-208400D02*
X327750Y-215900D01*
G54D11*
X327750Y-214233D02*
X327083Y-215567D01*
X325750Y-215900D01*
X324417Y-215567D01*
X323750Y-214233D01*
X323750Y-208400D01*
G54D11*
X146050Y-207567D02*
X149383Y-202567D01*
X149383Y-215900D01*
G54D11*
X159383Y-205067D02*
X159383Y-213400D01*
X158717Y-215067D01*
X157383Y-215900D01*
X156050Y-215900D01*
X154717Y-215067D01*
X154050Y-213400D01*
X154050Y-205067D01*
X154717Y-203400D01*
X156050Y-202567D01*
X157383Y-202567D01*
X158717Y-203400D01*
X159383Y-205067D01*
G54D11*
X169383Y-205067D02*
X169383Y-213400D01*
X168717Y-215067D01*
X167383Y-215900D01*
X166050Y-215900D01*
X164717Y-215067D01*
X164050Y-213400D01*
X164050Y-205067D01*
X164717Y-203400D01*
X166050Y-202567D01*
X167383Y-202567D01*
X168717Y-203400D01*
X169383Y-205067D01*
G54D11*
X179383Y-205067D02*
X179383Y-213400D01*
X178717Y-215067D01*
X177383Y-215900D01*
X176050Y-215900D01*
X174717Y-215067D01*
X174050Y-213400D01*
X174050Y-205067D01*
X174717Y-203400D01*
X176050Y-202567D01*
X177383Y-202567D01*
X178717Y-203400D01*
X179383Y-205067D01*
G54D11*
X188050Y-208400D02*
X188050Y-215900D01*
G54D11*
X188050Y-214233D02*
X187383Y-215567D01*
X186050Y-215900D01*
X184717Y-215567D01*
X184050Y-214233D01*
X184050Y-208400D01*
G54D11*
X350442Y-377825D02*
X345442Y-374492D01*
X358775Y-374492D01*
G54D11*
X358775Y-369825D02*
X345442Y-369825D01*
X358775Y-364492D01*
X345442Y-364492D01*
G54D11*
X358775Y-355825D02*
X345442Y-355825D01*
X353775Y-359825D01*
X355442Y-359825D01*
X355442Y-354492D01*
G54D11*
X347942Y-344492D02*
X356275Y-344492D01*
X357942Y-345158D01*
X358775Y-346492D01*
X358775Y-347825D01*
X357942Y-349158D01*
X356275Y-349825D01*
X347942Y-349825D01*
X346275Y-349158D01*
X345442Y-347825D01*
X345442Y-346492D01*
X346275Y-345158D01*
X347942Y-344492D01*
G54D11*
X347942Y-334492D02*
X356275Y-334492D01*
X357942Y-335158D01*
X358775Y-336492D01*
X358775Y-337825D01*
X357942Y-339158D01*
X356275Y-339825D01*
X347942Y-339825D01*
X346275Y-339158D01*
X345442Y-337825D01*
X345442Y-336492D01*
X346275Y-335158D01*
X347942Y-334492D01*
G54D11*
X358775Y-325825D02*
X345442Y-325825D01*
X353775Y-329825D01*
X355442Y-329825D01*
X355442Y-324492D01*
G54D11*
X395858Y-409575D02*
X390525Y-409575D01*
X390525Y-408742D01*
X391192Y-407075D01*
X395192Y-402075D01*
X395858Y-400408D01*
X395858Y-398742D01*
X395192Y-397075D01*
X393858Y-396242D01*
X392525Y-396242D01*
X391192Y-397075D01*
X390525Y-398742D01*
G54D11*
X405858Y-409575D02*
X400525Y-409575D01*
X400525Y-408742D01*
X401192Y-407075D01*
X405192Y-402075D01*
X405858Y-400408D01*
X405858Y-398742D01*
X405192Y-397075D01*
X403858Y-396242D01*
X402525Y-396242D01*
X401192Y-397075D01*
X400525Y-398742D01*
G54D11*
X415858Y-398742D02*
X415858Y-407075D01*
X415192Y-408742D01*
X413858Y-409575D01*
X412525Y-409575D01*
X411192Y-408742D01*
X410525Y-407075D01*
X410525Y-398742D01*
X411192Y-397075D01*
X412525Y-396242D01*
X413858Y-396242D01*
X415192Y-397075D01*
X415858Y-398742D01*
G54D11*
X420525Y-409575D02*
X420525Y-402075D01*
G54D11*
X420525Y-403742D02*
X421192Y-402575D01*
X422525Y-402075D01*
X423858Y-402575D01*
X424525Y-403742D01*
X424525Y-409575D01*
G54D11*
X403225Y-210742D02*
X406558Y-205742D01*
X406558Y-219075D01*
G54D11*
X421358Y-208242D02*
X421358Y-216575D01*
X420692Y-218242D01*
X419358Y-219075D01*
X418025Y-219075D01*
X416692Y-218242D01*
X416025Y-216575D01*
X416025Y-208242D01*
X416692Y-206575D01*
X418025Y-205742D01*
X419358Y-205742D01*
X420692Y-206575D01*
X421358Y-208242D01*
G54D11*
X426025Y-219075D02*
X426025Y-205742D01*
G54D11*
X426025Y-213742D02*
X426692Y-212075D01*
X428025Y-211575D01*
X429358Y-212075D01*
X430025Y-213742D01*
X430025Y-219075D01*
G54D11*
X434692Y-219075D02*
X434692Y-211575D01*
G54D11*
X434692Y-212908D02*
X436025Y-211575D01*
X437359Y-212075D01*
X438025Y-213242D01*
X438025Y-219075D01*
G54D11*
X438025Y-212908D02*
X439359Y-211575D01*
X440692Y-212075D01*
X441359Y-213242D01*
X441359Y-219075D01*
G54D10*
X220662Y-421958D02*
X220662Y-509270D01*
G54D10*
X200025Y-509270D02*
X195262Y-509270D01*
G54D10*
X188912Y-509270D02*
X184150Y-509270D01*
G54D10*
X200025Y-421958D02*
X195262Y-421958D01*
G54D10*
X188912Y-421958D02*
X184150Y-421958D01*
G54D10*
X184150Y-509270D02*
X184150Y-502920D01*
G54D10*
X184150Y-494982D02*
X184150Y-487045D01*
G54D10*
X184150Y-421958D02*
X184150Y-428308D01*
G54D10*
X184150Y-469582D02*
X184150Y-477520D01*
G54D10*
X184150Y-452120D02*
X184150Y-460058D01*
G54D10*
X184150Y-436245D02*
X184150Y-444182D01*
G54D10*
X200025Y-509270D02*
X200025Y-421958D01*
X314325Y-421958D01*
X314325Y-509270D01*
X200025Y-509270D01*
G54D14*
X22225Y-514350D02*
X34925Y-514350D01*
G54D14*
X47625Y-514350D02*
X60325Y-514350D01*
G54D14*
X73025Y-514350D02*
X85725Y-514350D01*
G54D14*
X98425Y-514350D02*
X111125Y-514350D01*
G54D14*
X123825Y-514350D02*
X136525Y-514350D01*
G54D14*
X149225Y-514350D02*
X161925Y-514350D01*
G54D14*
X174625Y-514350D02*
X187325Y-514350D01*
G54D14*
X200025Y-514350D02*
X212725Y-514350D01*
G54D14*
X225425Y-514350D02*
X238125Y-514350D01*
G54D14*
X250825Y-514350D02*
X263525Y-514350D01*
G54D14*
X276225Y-514350D02*
X288925Y-514350D01*
G54D14*
X301625Y-514350D02*
X314325Y-514350D01*
G54D14*
X327025Y-514350D02*
X339725Y-514350D01*
G54D14*
X352425Y-514350D02*
X365125Y-514350D01*
G54D14*
X377825Y-514350D02*
X390525Y-514350D01*
G54D14*
X403225Y-514350D02*
X415925Y-514350D01*
G54D14*
X428625Y-514350D02*
X441325Y-514350D01*
G54D11*
X119132Y-544117D02*
X122465Y-539117D01*
X122465Y-552450D01*
G54D11*
X132465Y-552450D02*
X127132Y-552450D01*
X127132Y-551617D01*
X127799Y-549950D01*
X131799Y-544950D01*
X132465Y-543283D01*
X132465Y-541617D01*
X131799Y-539950D01*
X130465Y-539117D01*
X129132Y-539117D01*
X127799Y-539950D01*
X127132Y-541617D01*
G54D11*
X141932Y-552450D02*
X141932Y-539117D01*
X145265Y-539117D01*
X146599Y-539950D01*
X147265Y-541617D01*
X147265Y-543283D01*
X146599Y-544950D01*
X145265Y-545783D01*
X146599Y-546617D01*
X147265Y-548283D01*
X147265Y-549950D01*
X146599Y-551617D01*
X145265Y-552450D01*
X141932Y-552450D01*
G54D11*
X141932Y-545783D02*
X145265Y-545783D01*
G54D10*
X783112Y-13962D02*
X676750Y-13962D01*
G54D10*
X783112Y-13962D02*
X783112Y-60000D01*
X761681Y-60000D01*
G54D10*
X765175Y-77000D02*
X765175Y-61125D01*
G54D10*
X730175Y-77000D02*
X730175Y-61125D01*
G54D10*
X695175Y-77000D02*
X695175Y-61212D01*
G54D10*
X593250Y-380325D02*
X593250Y-123500D01*
X513250Y-123500D01*
X513250Y-380325D01*
X593250Y-380325D01*
G54D10*
X573250Y-342875D02*
X533250Y-342875D01*
G54D10*
X573250Y-336050D02*
X533250Y-336050D01*
G54D10*
X553250Y-342875D02*
X553250Y-350325D01*
G54D10*
X553250Y-336050D02*
X553250Y-328125D01*
G54D10*
X776300Y-153925D02*
X776300Y-169925D01*
G54D10*
X773100Y-153925D02*
X773100Y-169925D01*
G54D10*
X789000Y-161925D02*
X776300Y-161925D01*
G54D10*
X773100Y-161925D02*
X760400Y-161925D01*
G54D11*
X584200Y-58342D02*
X587533Y-53342D01*
X587533Y-66675D01*
G54D11*
X597533Y-55842D02*
X597533Y-64175D01*
X596867Y-65842D01*
X595533Y-66675D01*
X594200Y-66675D01*
X592867Y-65842D01*
X592200Y-64175D01*
X592200Y-55842D01*
X592867Y-54175D01*
X594200Y-53342D01*
X595533Y-53342D01*
X596867Y-54175D01*
X597533Y-55842D01*
G54D11*
X607533Y-55842D02*
X607533Y-64175D01*
X606867Y-65842D01*
X605533Y-66675D01*
X604200Y-66675D01*
X602867Y-65842D01*
X602200Y-64175D01*
X602200Y-55842D01*
X602867Y-54175D01*
X604200Y-53342D01*
X605533Y-53342D01*
X606867Y-54175D01*
X607533Y-55842D01*
G54D11*
X616200Y-59175D02*
X616200Y-66675D01*
G54D11*
X616200Y-65008D02*
X615533Y-66342D01*
X614200Y-66675D01*
X612867Y-66342D01*
X612200Y-65008D01*
X612200Y-59175D01*
G54D11*
X880667Y-327025D02*
X875667Y-323692D01*
X889000Y-323692D01*
G54D11*
X889000Y-319025D02*
X875667Y-319025D01*
X889000Y-313692D01*
X875667Y-313692D01*
G54D11*
X889000Y-305025D02*
X875667Y-305025D01*
X884000Y-309025D01*
X885667Y-309025D01*
X885667Y-303692D01*
G54D11*
X878167Y-293692D02*
X886500Y-293692D01*
X888167Y-294358D01*
X889000Y-295692D01*
X889000Y-297025D01*
X888167Y-298358D01*
X886500Y-299025D01*
X878167Y-299025D01*
X876500Y-298358D01*
X875667Y-297025D01*
X875667Y-295692D01*
X876500Y-294358D01*
X878167Y-293692D01*
G54D11*
X878167Y-283692D02*
X886500Y-283692D01*
X888167Y-284358D01*
X889000Y-285692D01*
X889000Y-287025D01*
X888167Y-288358D01*
X886500Y-289025D01*
X878167Y-289025D01*
X876500Y-288358D01*
X875667Y-287025D01*
X875667Y-285692D01*
X876500Y-284358D01*
X878167Y-283692D01*
G54D11*
X889000Y-275025D02*
X875667Y-275025D01*
X884000Y-279025D01*
X885667Y-279025D01*
X885667Y-273692D01*
G54D11*
X545083Y-117475D02*
X539750Y-117475D01*
X539750Y-116642D01*
X540417Y-114975D01*
X544417Y-109975D01*
X545083Y-108308D01*
X545083Y-106642D01*
X544417Y-104975D01*
X543083Y-104142D01*
X541750Y-104142D01*
X540417Y-104975D01*
X539750Y-106642D01*
G54D11*
X551083Y-117475D02*
X551083Y-119142D01*
X550417Y-120808D01*
X549750Y-120808D01*
G54D11*
X561083Y-117475D02*
X555750Y-117475D01*
X555750Y-116642D01*
X556417Y-114975D01*
X560417Y-109975D01*
X561083Y-108308D01*
X561083Y-106642D01*
X560417Y-104975D01*
X559083Y-104142D01*
X557750Y-104142D01*
X556417Y-104975D01*
X555750Y-106642D01*
G54D11*
X569750Y-109975D02*
X569750Y-117475D01*
G54D11*
X569750Y-115808D02*
X569083Y-117142D01*
X567750Y-117475D01*
X566417Y-117142D01*
X565750Y-115808D01*
X565750Y-109975D01*
G54D11*
X793242Y-57150D02*
X793242Y-43817D01*
G54D11*
X790575Y-43817D02*
X795908Y-43817D01*
G54D11*
X800575Y-57150D02*
X800575Y-43817D01*
X803908Y-43817D01*
X805242Y-44650D01*
X805908Y-46317D01*
X805908Y-54650D01*
X805242Y-56317D01*
X803908Y-57150D01*
X800575Y-57150D01*
G54D11*
X810575Y-57150D02*
X813908Y-43817D01*
X817242Y-57150D01*
G54D11*
X811908Y-52150D02*
X815908Y-52150D01*
G54D11*
X827242Y-57150D02*
X821909Y-57150D01*
X821909Y-56317D01*
X822576Y-54650D01*
X826576Y-49650D01*
X827242Y-47983D01*
X827242Y-46317D01*
X826576Y-44650D01*
X825242Y-43817D01*
X823909Y-43817D01*
X822576Y-44650D01*
X821909Y-46317D01*
G54D11*
X837242Y-46317D02*
X837242Y-54650D01*
X836576Y-56317D01*
X835242Y-57150D01*
X833909Y-57150D01*
X832576Y-56317D01*
X831909Y-54650D01*
X831909Y-46317D01*
X832576Y-44650D01*
X833909Y-43817D01*
X835242Y-43817D01*
X836576Y-44650D01*
X837242Y-46317D01*
G54D11*
X847242Y-43817D02*
X841909Y-43817D01*
X841909Y-49650D01*
X842576Y-49650D01*
X843909Y-48817D01*
X845242Y-48817D01*
X846576Y-49650D01*
X847242Y-51317D01*
X847242Y-54650D01*
X846576Y-56317D01*
X845242Y-57150D01*
X843909Y-57150D01*
X842576Y-56317D01*
X841909Y-54650D01*
G54D11*
X857242Y-46317D02*
X857242Y-54650D01*
X856576Y-56317D01*
X855242Y-57150D01*
X853909Y-57150D01*
X852576Y-56317D01*
X851909Y-54650D01*
X851909Y-46317D01*
X852576Y-44650D01*
X853909Y-43817D01*
X855242Y-43817D01*
X856576Y-44650D01*
X857242Y-46317D01*
G54D12*
X757238Y-307975D02*
X782638Y-307975D01*
G54D12*
X769938Y-320675D02*
X769938Y-295275D01*
G54D12*
X677862Y-307975D02*
X703262Y-307975D01*
G54D12*
X730250Y-295375D02*
X730250Y-320775D01*
G54D12*
X717550Y-320775D02*
X742950Y-320775D01*
G54D10*
G75*
G01X849900Y-231775D02*
G03X849900Y-231775I-50000J0D01*
G01*
G54D10*
G75*
G01X710697Y-230911D02*
G03X710697Y-230911I-50000J0D01*
G01*
G54D10*
G75*
G01X655025Y-79400D02*
G03X655025Y-79400I-42500J0D01*
G01*
G54D10*
X676750Y-13962D02*
X676750Y-60397D01*
X698975Y-60397D01*
G54D10*
X726756Y-60000D02*
X733900Y-60000D01*
G54D11*
X605408Y-387350D02*
X600075Y-387350D01*
X600075Y-386517D01*
X600742Y-384850D01*
X604742Y-379850D01*
X605408Y-378183D01*
X605408Y-376517D01*
X604742Y-374850D01*
X603408Y-374017D01*
X602075Y-374017D01*
X600742Y-374850D01*
X600075Y-376517D01*
G54D11*
X615408Y-387350D02*
X610075Y-387350D01*
X610075Y-386517D01*
X610742Y-384850D01*
X614742Y-379850D01*
X615408Y-378183D01*
X615408Y-376517D01*
X614742Y-374850D01*
X613408Y-374017D01*
X612075Y-374017D01*
X610742Y-374850D01*
X610075Y-376517D01*
G54D11*
X625408Y-376517D02*
X625408Y-384850D01*
X624742Y-386517D01*
X623408Y-387350D01*
X622075Y-387350D01*
X620742Y-386517D01*
X620075Y-384850D01*
X620075Y-376517D01*
X620742Y-374850D01*
X622075Y-374017D01*
X623408Y-374017D01*
X624742Y-374850D01*
X625408Y-376517D01*
G54D11*
X630075Y-379850D02*
X630075Y-390683D01*
G54D11*
X630075Y-384850D02*
X630742Y-387017D01*
X632075Y-387350D01*
X633408Y-387017D01*
X634075Y-385350D01*
X634075Y-382017D01*
X633408Y-380350D01*
X632075Y-379850D01*
X630742Y-380350D01*
X630075Y-382350D01*
G54D10*
X593725Y-390525D02*
X593725Y-441325D01*
X511175Y-441325D01*
X511175Y-390525D01*
X593725Y-390525D01*
G36*
X676750Y-13962D02*
X676750Y-25075D01*
X783112Y-25075D01*
X783112Y-13962D01*
X676750Y-13962D01*
G37*
G54D10*
X676750Y-13962D02*
X676750Y-25075D01*
X783112Y-25075D01*
X783112Y-13962D01*
X676750Y-13962D01*
G54D10*
X577850Y-454025D02*
X527050Y-454025D01*
G54D10*
X590550Y-449262D02*
X514350Y-449262D01*
X514350Y-514350D01*
X590550Y-514350D01*
X590550Y-449262D01*
G54D10*
X527050Y-449262D02*
X527050Y-457200D01*
X577850Y-457200D01*
X577850Y-449262D01*
G54D10*
X631825Y-63500D02*
X631825Y-50800D01*
G54D10*
X625475Y-57150D02*
X638175Y-57150D01*
G54D10*
X631825Y-107950D02*
X631825Y-95250D01*
G54D10*
X625475Y-101600D02*
X638175Y-101600D01*
G54D13*
G75*
G01X576019Y-58150D02*
G03X576019Y-100650I36806J-21250D01*
G01*
G54D10*
X825500Y-215900D02*
X825500Y-203200D01*
G54D10*
X819150Y-209550D02*
X831850Y-209550D01*
G54D10*
X825500Y-260350D02*
X825500Y-247650D01*
G54D10*
X819150Y-254000D02*
X831850Y-254000D01*
G54D13*
G75*
G01X756824Y-206825D02*
G03X756824Y-256825I43301J-25000D01*
G01*
G54D13*
G75*
G01X617621Y-205961D02*
G03X617621Y-255961I43301J-25000D01*
G01*
G54D10*
X686297Y-215036D02*
X686297Y-202336D01*
G54D10*
X679947Y-208686D02*
X692647Y-208686D01*
G54D10*
X686297Y-259486D02*
X686297Y-246786D01*
G54D10*
X679947Y-253136D02*
X692647Y-253136D01*
G54D10*
X666592Y-382588D02*
X793592Y-382588D01*
G54D10*
X793592Y-403225D02*
X793592Y-407988D01*
G54D10*
X793592Y-414338D02*
X793592Y-419100D01*
G54D10*
X666592Y-403225D02*
X666592Y-407988D01*
G54D10*
X666592Y-414338D02*
X666592Y-419100D01*
G54D10*
X793592Y-419100D02*
X787242Y-419100D01*
G54D10*
X777716Y-419100D02*
X769779Y-419100D01*
G54D10*
X666592Y-419100D02*
X672942Y-419100D01*
G54D10*
X682466Y-419100D02*
X690404Y-419100D01*
G54D10*
X752316Y-419100D02*
X760254Y-419100D01*
G54D10*
X734854Y-419100D02*
X742792Y-419100D01*
G54D10*
X699929Y-419100D02*
X707866Y-419100D01*
G54D10*
X717392Y-419100D02*
X725329Y-419100D01*
G54D10*
X793592Y-403225D02*
X666592Y-403225D01*
X666592Y-288925D01*
X793592Y-288925D01*
X793592Y-403225D01*
G54D10*
X810500Y-146050D02*
X810500Y-177800D01*
X738900Y-177800D01*
X738900Y-146050D01*
X810500Y-146050D01*
G54D10*
X687400Y-153925D02*
X687400Y-169925D01*
G54D10*
X684200Y-153925D02*
X684200Y-169925D01*
G54D10*
X700100Y-161925D02*
X687400Y-161925D01*
G54D10*
X684200Y-161925D02*
X671500Y-161925D01*
G54D10*
X721600Y-146050D02*
X721600Y-177800D01*
X650000Y-177800D01*
X650000Y-146050D01*
X721600Y-146050D01*
G54D10*
X877888Y-136525D02*
X931862Y-136525D01*
X931862Y-288925D01*
X877888Y-288925D01*
X877888Y-136525D01*
G54D10*
X904875Y-136525D02*
X904875Y-123825D01*
G54D10*
X904875Y-301625D02*
X904875Y-288925D01*
G54D10*
X812800Y-344487D02*
X822325Y-354012D01*
X803276Y-354012D01*
X812800Y-344487D01*
G54D10*
X822325Y-344487D02*
X803275Y-344488D01*
G54D10*
X825500Y-377825D02*
X825500Y-320675D01*
X800100Y-320675D01*
X800100Y-377825D01*
X825500Y-377825D01*
G54D10*
X812800Y-354012D02*
X812800Y-387350D01*
G54D10*
X812800Y-344487D02*
X812800Y-311150D01*
G36*
X825500Y-320675D02*
X825500Y-331788D01*
X800100Y-331788D01*
X800100Y-320675D01*
X825500Y-320675D01*
G37*
G54D10*
X825500Y-320675D02*
X825500Y-331788D01*
X800100Y-331788D01*
X800100Y-320675D01*
X825500Y-320675D01*
G54D10*
X860425Y-303213D02*
X869950Y-293688D01*
X850900Y-293688D01*
X860425Y-303213D01*
G54D10*
X869950Y-303213D02*
X850900Y-303212D01*
G54D10*
X873125Y-269875D02*
X873125Y-327025D01*
X847725Y-327025D01*
X847725Y-269875D01*
X873125Y-269875D01*
G54D10*
X860425Y-293688D02*
X860425Y-260350D01*
G54D10*
X860425Y-303213D02*
X860426Y-336550D01*
G36*
X873125Y-327025D02*
X873125Y-315912D01*
X847725Y-315912D01*
X847725Y-327025D01*
X873125Y-327025D01*
G37*
G54D10*
X873125Y-327025D02*
X873125Y-315912D01*
X847725Y-315912D01*
X847725Y-327025D01*
X873125Y-327025D01*
G54D10*
X893775Y-366650D02*
X893775Y-382650D01*
G54D10*
X890575Y-366650D02*
X890575Y-382650D01*
G54D10*
X906475Y-374650D02*
X893775Y-374650D01*
G54D10*
X890575Y-374650D02*
X877875Y-374650D01*
G54D10*
X927975Y-358775D02*
X927975Y-390525D01*
X856375Y-390525D01*
X856375Y-358775D01*
X927975Y-358775D01*
G54D11*
X596900Y-485775D02*
X596900Y-472442D01*
X600233Y-472442D01*
X601567Y-473275D01*
X602233Y-474942D01*
X602233Y-476608D01*
X601567Y-478275D01*
X600233Y-479108D01*
X601567Y-479942D01*
X602233Y-481608D01*
X602233Y-483275D01*
X601567Y-484942D01*
X600233Y-485775D01*
X596900Y-485775D01*
G54D11*
X596900Y-479108D02*
X600233Y-479108D01*
G54D11*
X606900Y-472442D02*
X613567Y-485775D01*
G54D11*
X606900Y-485775D02*
X613567Y-472442D01*
G54D11*
X623567Y-474942D02*
X623567Y-483275D01*
X622901Y-484942D01*
X621567Y-485775D01*
X620234Y-485775D01*
X618901Y-484942D01*
X618234Y-483275D01*
X618234Y-474942D01*
X618901Y-473275D01*
X620234Y-472442D01*
X621567Y-472442D01*
X622901Y-473275D01*
X623567Y-474942D01*
G54D11*
X628234Y-485775D02*
X628234Y-484108D01*
X634901Y-484108D01*
X634901Y-485775D01*
G54D11*
X629567Y-484108D02*
X629567Y-474942D01*
X631567Y-472442D01*
X633567Y-472442D01*
X633567Y-484108D01*
G54D11*
X695325Y-285750D02*
X695325Y-272417D01*
X700658Y-272417D01*
X700658Y-285750D01*
G54D11*
X705325Y-272417D02*
X705325Y-285750D01*
X710658Y-272417D01*
X710658Y-285750D01*
G54D11*
X717992Y-285750D02*
X717992Y-272417D01*
G54D11*
X715325Y-272417D02*
X720658Y-272417D01*
G54D11*
X725325Y-285750D02*
X728658Y-272417D01*
X731992Y-285750D01*
G54D11*
X726658Y-280750D02*
X730658Y-280750D01*
G54D11*
X736659Y-285750D02*
X736659Y-272417D01*
G54D11*
X741992Y-285750D02*
X741992Y-272417D01*
G54D11*
X736659Y-279083D02*
X741992Y-279083D01*
G54D11*
X746659Y-272417D02*
X746659Y-285750D01*
X751992Y-272417D01*
X751992Y-285750D01*
G54D11*
X761326Y-285750D02*
X756659Y-285750D01*
X756659Y-272417D01*
X761326Y-272417D01*
G54D11*
X756659Y-279083D02*
X761326Y-279083D01*
G54D11*
X663575Y-488950D02*
X650242Y-488950D01*
X650242Y-485617D01*
X651075Y-484283D01*
X652742Y-483617D01*
X654408Y-483617D01*
X656075Y-484283D01*
X656908Y-485617D01*
X657742Y-484283D01*
X659408Y-483617D01*
X661075Y-483617D01*
X662742Y-484283D01*
X663575Y-485617D01*
X663575Y-488950D01*
G54D11*
X656908Y-488950D02*
X656908Y-485617D01*
G54D11*
X650242Y-478950D02*
X663575Y-478950D01*
X663575Y-476283D01*
X661908Y-474950D01*
X656908Y-474950D01*
X655242Y-476283D01*
X655242Y-478950D01*
G54D11*
X663575Y-472283D02*
X650242Y-472283D01*
G54D11*
X650242Y-467616D02*
X663575Y-460949D01*
G54D11*
X663575Y-467616D02*
X650242Y-460949D01*
G54D11*
X652742Y-450949D02*
X661075Y-450949D01*
X662742Y-451615D01*
X663575Y-452949D01*
X663575Y-454282D01*
X662742Y-455615D01*
X661075Y-456282D01*
X652742Y-456282D01*
X651075Y-455615D01*
X650242Y-454282D01*
X650242Y-452949D01*
X651075Y-451615D01*
X652742Y-450949D01*
G54D11*
X663575Y-446282D02*
X661908Y-446282D01*
X661908Y-439615D01*
X663575Y-439615D01*
G54D11*
X661908Y-444949D02*
X652742Y-444949D01*
X650242Y-442949D01*
X650242Y-440949D01*
X661908Y-440949D01*
G54D11*
X672083Y-142875D02*
X666750Y-142875D01*
X666750Y-142042D01*
X667417Y-140375D01*
X671417Y-135375D01*
X672083Y-133708D01*
X672083Y-132042D01*
X671417Y-130375D01*
X670083Y-129542D01*
X668750Y-129542D01*
X667417Y-130375D01*
X666750Y-132042D01*
G54D11*
X682083Y-142875D02*
X676750Y-142875D01*
X676750Y-142042D01*
X677417Y-140375D01*
X681417Y-135375D01*
X682083Y-133708D01*
X682083Y-132042D01*
X681417Y-130375D01*
X680083Y-129542D01*
X678750Y-129542D01*
X677417Y-130375D01*
X676750Y-132042D01*
G54D11*
X692083Y-132042D02*
X692083Y-140375D01*
X691417Y-142042D01*
X690083Y-142875D01*
X688750Y-142875D01*
X687417Y-142042D01*
X686750Y-140375D01*
X686750Y-132042D01*
X687417Y-130375D01*
X688750Y-129542D01*
X690083Y-129542D01*
X691417Y-130375D01*
X692083Y-132042D01*
G54D11*
X696750Y-142875D02*
X696750Y-135375D01*
G54D11*
X696750Y-137042D02*
X697417Y-135875D01*
X698750Y-135375D01*
X700083Y-135875D01*
X700750Y-137042D01*
X700750Y-142875D01*
G54D11*
X764158Y-142875D02*
X758825Y-142875D01*
X758825Y-142042D01*
X759492Y-140375D01*
X763492Y-135375D01*
X764158Y-133708D01*
X764158Y-132042D01*
X763492Y-130375D01*
X762158Y-129542D01*
X760825Y-129542D01*
X759492Y-130375D01*
X758825Y-132042D01*
G54D11*
X774158Y-142875D02*
X768825Y-142875D01*
X768825Y-142042D01*
X769492Y-140375D01*
X773492Y-135375D01*
X774158Y-133708D01*
X774158Y-132042D01*
X773492Y-130375D01*
X772158Y-129542D01*
X770825Y-129542D01*
X769492Y-130375D01*
X768825Y-132042D01*
G54D11*
X784158Y-132042D02*
X784158Y-140375D01*
X783492Y-142042D01*
X782158Y-142875D01*
X780825Y-142875D01*
X779492Y-142042D01*
X778825Y-140375D01*
X778825Y-132042D01*
X779492Y-130375D01*
X780825Y-129542D01*
X782158Y-129542D01*
X783492Y-130375D01*
X784158Y-132042D01*
G54D11*
X788825Y-142875D02*
X788825Y-135375D01*
G54D11*
X788825Y-137042D02*
X789492Y-135875D01*
X790825Y-135375D01*
X792158Y-135875D01*
X792825Y-137042D01*
X792825Y-142875D01*
G54D11*
X768350Y-207567D02*
X771683Y-202567D01*
X771683Y-215900D01*
G54D11*
X781683Y-205067D02*
X781683Y-213400D01*
X781017Y-215067D01*
X779683Y-215900D01*
X778350Y-215900D01*
X777017Y-215067D01*
X776350Y-213400D01*
X776350Y-205067D01*
X777017Y-203400D01*
X778350Y-202567D01*
X779683Y-202567D01*
X781017Y-203400D01*
X781683Y-205067D01*
G54D11*
X791683Y-205067D02*
X791683Y-213400D01*
X791017Y-215067D01*
X789683Y-215900D01*
X788350Y-215900D01*
X787017Y-215067D01*
X786350Y-213400D01*
X786350Y-205067D01*
X787017Y-203400D01*
X788350Y-202567D01*
X789683Y-202567D01*
X791017Y-203400D01*
X791683Y-205067D01*
G54D11*
X801683Y-205067D02*
X801683Y-213400D01*
X801017Y-215067D01*
X799683Y-215900D01*
X798350Y-215900D01*
X797017Y-215067D01*
X796350Y-213400D01*
X796350Y-205067D01*
X797017Y-203400D01*
X798350Y-202567D01*
X799683Y-202567D01*
X801017Y-203400D01*
X801683Y-205067D01*
G54D11*
X810350Y-208400D02*
X810350Y-215900D01*
G54D11*
X810350Y-214233D02*
X809683Y-215567D01*
X808350Y-215900D01*
X807017Y-215567D01*
X806350Y-214233D01*
X806350Y-208400D01*
G54D11*
X628650Y-207567D02*
X631983Y-202567D01*
X631983Y-215900D01*
G54D11*
X641983Y-205067D02*
X641983Y-213400D01*
X641317Y-215067D01*
X639983Y-215900D01*
X638650Y-215900D01*
X637317Y-215067D01*
X636650Y-213400D01*
X636650Y-205067D01*
X637317Y-203400D01*
X638650Y-202567D01*
X639983Y-202567D01*
X641317Y-203400D01*
X641983Y-205067D01*
G54D11*
X651983Y-205067D02*
X651983Y-213400D01*
X651317Y-215067D01*
X649983Y-215900D01*
X648650Y-215900D01*
X647317Y-215067D01*
X646650Y-213400D01*
X646650Y-205067D01*
X647317Y-203400D01*
X648650Y-202567D01*
X649983Y-202567D01*
X651317Y-203400D01*
X651983Y-205067D01*
G54D11*
X661983Y-205067D02*
X661983Y-213400D01*
X661317Y-215067D01*
X659983Y-215900D01*
X658650Y-215900D01*
X657317Y-215067D01*
X656650Y-213400D01*
X656650Y-205067D01*
X657317Y-203400D01*
X658650Y-202567D01*
X659983Y-202567D01*
X661317Y-203400D01*
X661983Y-205067D01*
G54D11*
X670650Y-208400D02*
X670650Y-215900D01*
G54D11*
X670650Y-214233D02*
X669983Y-215567D01*
X668650Y-215900D01*
X667317Y-215567D01*
X666650Y-214233D01*
X666650Y-208400D01*
G54D11*
X833042Y-377825D02*
X828042Y-374492D01*
X841375Y-374492D01*
G54D11*
X841375Y-369825D02*
X828042Y-369825D01*
X841375Y-364492D01*
X828042Y-364492D01*
G54D11*
X841375Y-355825D02*
X828042Y-355825D01*
X836375Y-359825D01*
X838042Y-359825D01*
X838042Y-354492D01*
G54D11*
X830542Y-344492D02*
X838875Y-344492D01*
X840542Y-345158D01*
X841375Y-346492D01*
X841375Y-347825D01*
X840542Y-349158D01*
X838875Y-349825D01*
X830542Y-349825D01*
X828875Y-349158D01*
X828042Y-347825D01*
X828042Y-346492D01*
X828875Y-345158D01*
X830542Y-344492D01*
G54D11*
X830542Y-334492D02*
X838875Y-334492D01*
X840542Y-335158D01*
X841375Y-336492D01*
X841375Y-337825D01*
X840542Y-339158D01*
X838875Y-339825D01*
X830542Y-339825D01*
X828875Y-339158D01*
X828042Y-337825D01*
X828042Y-336492D01*
X828875Y-335158D01*
X830542Y-334492D01*
G54D11*
X841375Y-325825D02*
X828042Y-325825D01*
X836375Y-329825D01*
X838042Y-329825D01*
X838042Y-324492D01*
G54D11*
X878458Y-409575D02*
X873125Y-409575D01*
X873125Y-408742D01*
X873792Y-407075D01*
X877792Y-402075D01*
X878458Y-400408D01*
X878458Y-398742D01*
X877792Y-397075D01*
X876458Y-396242D01*
X875125Y-396242D01*
X873792Y-397075D01*
X873125Y-398742D01*
G54D11*
X888458Y-409575D02*
X883125Y-409575D01*
X883125Y-408742D01*
X883792Y-407075D01*
X887792Y-402075D01*
X888458Y-400408D01*
X888458Y-398742D01*
X887792Y-397075D01*
X886458Y-396242D01*
X885125Y-396242D01*
X883792Y-397075D01*
X883125Y-398742D01*
G54D11*
X898458Y-398742D02*
X898458Y-407075D01*
X897792Y-408742D01*
X896458Y-409575D01*
X895125Y-409575D01*
X893792Y-408742D01*
X893125Y-407075D01*
X893125Y-398742D01*
X893792Y-397075D01*
X895125Y-396242D01*
X896458Y-396242D01*
X897792Y-397075D01*
X898458Y-398742D01*
G54D11*
X903125Y-409575D02*
X903125Y-402075D01*
G54D11*
X903125Y-403742D02*
X903792Y-402575D01*
X905125Y-402075D01*
X906458Y-402575D01*
X907125Y-403742D01*
X907125Y-409575D01*
G54D11*
X885825Y-210742D02*
X889158Y-205742D01*
X889158Y-219075D01*
G54D11*
X903958Y-208242D02*
X903958Y-216575D01*
X903292Y-218242D01*
X901958Y-219075D01*
X900625Y-219075D01*
X899292Y-218242D01*
X898625Y-216575D01*
X898625Y-208242D01*
X899292Y-206575D01*
X900625Y-205742D01*
X901958Y-205742D01*
X903292Y-206575D01*
X903958Y-208242D01*
G54D11*
X908625Y-219075D02*
X908625Y-205742D01*
G54D11*
X908625Y-213742D02*
X909292Y-212075D01*
X910625Y-211575D01*
X911958Y-212075D01*
X912625Y-213742D01*
X912625Y-219075D01*
G54D11*
X917292Y-219075D02*
X917292Y-211575D01*
G54D11*
X917292Y-212908D02*
X918625Y-211575D01*
X919959Y-212075D01*
X920625Y-213242D01*
X920625Y-219075D01*
G54D11*
X920625Y-212908D02*
X921959Y-211575D01*
X923292Y-212075D01*
X923959Y-213242D01*
X923959Y-219075D01*
G54D10*
X703262Y-421958D02*
X703262Y-509270D01*
G54D10*
X682625Y-509270D02*
X677862Y-509270D01*
G54D10*
X671512Y-509270D02*
X666750Y-509270D01*
G54D10*
X682625Y-421958D02*
X677862Y-421958D01*
G54D10*
X671512Y-421958D02*
X666750Y-421958D01*
G54D10*
X666750Y-509270D02*
X666750Y-502920D01*
G54D10*
X666750Y-494982D02*
X666750Y-487045D01*
G54D10*
X666750Y-421958D02*
X666750Y-428308D01*
G54D10*
X666750Y-469582D02*
X666750Y-477520D01*
G54D10*
X666750Y-452120D02*
X666750Y-460058D01*
G54D10*
X666750Y-436245D02*
X666750Y-444182D01*
G54D10*
X682625Y-509270D02*
X682625Y-421958D01*
X796925Y-421958D01*
X796925Y-509270D01*
X682625Y-509270D01*
G54D11*
X130175Y-612142D02*
X130175Y-625475D01*
X134842Y-625475D01*
G54D11*
X144176Y-625475D02*
X139509Y-625475D01*
X139509Y-612142D01*
X144176Y-612142D01*
G54D11*
X139509Y-618808D02*
X144176Y-618808D01*
G54D11*
X148843Y-625475D02*
X148843Y-612142D01*
X152176Y-612142D01*
X153510Y-612975D01*
X154176Y-614642D01*
X154176Y-622975D01*
X153510Y-624642D01*
X152176Y-625475D01*
X148843Y-625475D01*
G54D15*
G75*
G01X47000Y-501700D02*
G03X47000Y-501700I-2500J0D01*
G01*
G54D15*
G75*
G01X148600Y-501700D02*
G03X148600Y-501700I-2500J0D01*
G01*
G54D15*
G75*
G01X250200Y-368350D02*
G03X250200Y-368350I-2500J0D01*
G01*
G54D10*
X114300Y-501650D02*
X127000Y-501650D01*
G54D10*
X120650Y-508000D02*
X120650Y-495300D01*
G54D15*
G75*
G01X529600Y-501700D02*
G03X529600Y-501700I-2500J0D01*
G01*
G54D15*
G75*
G01X732800Y-368350D02*
G03X732800Y-368350I-2500J0D01*
G01*
M02*
