%FSLAX34Y34*%
%MOMM*%
%LNOUTLINE*%
G71*
G01*
%ADD10C, 0.20*%
%LPD*%
G54D10*
G75*
G01X168275Y-34925D02*
G03X177800Y-25400I0J9525D01*
G01*
G54D10*
G75*
G01X400050Y-596900D02*
G03X390525Y-606425I0J-9525D01*
G01*
G54D10*
G75*
G01X390525Y-615950D02*
G03X400050Y-625475I9525J0D01*
G01*
G54D10*
G75*
G01X422275Y-660400D02*
G03X431800Y-669925I9525J0D01*
G01*
G54D10*
X390525Y-606425D02*
X390525Y-615950D01*
G54D10*
X400050Y-625475D02*
X412750Y-625475D01*
G54D10*
G75*
G01X422275Y-635000D02*
G03X412750Y-625475I-9525J0D01*
G01*
G54D10*
X422275Y-635000D02*
X422275Y-660400D01*
G54D10*
X168275Y-34925D02*
X107950Y-34925D01*
G54D10*
G75*
G01X98425Y-25400D02*
G03X107950Y-34925I9525J0D01*
G01*
G54D10*
G75*
G01X387350Y-34925D02*
G03X396875Y-25400I0J9525D01*
G01*
G54D10*
X387350Y-34925D02*
X327025Y-34925D01*
G54D10*
G75*
G01X317500Y-25400D02*
G03X327025Y-34925I9525J0D01*
G01*
G54D10*
X98425Y-25400D02*
X98425Y-15875D01*
X22225Y-15875D01*
G54D10*
X177800Y-25400D02*
X177800Y-15875D01*
X317500Y-15875D01*
X317500Y-25400D01*
G54D10*
X396875Y-25400D02*
X396875Y-15875D01*
X441325Y-15875D01*
G54D10*
G75*
G01X111125Y-546100D02*
G03X101600Y-536575I-9525J0D01*
G01*
G54D10*
X431800Y-669925D02*
X450850Y-669925D01*
X450850Y-720725D01*
G54D10*
G75*
G01X22225Y-15875D02*
G03X12700Y-25400I0J-9525D01*
G01*
G54D10*
X101600Y-536575D02*
X22225Y-536575D01*
G54D10*
G75*
G01X12700Y-527050D02*
G03X22225Y-536575I9525J0D01*
G01*
G54D10*
X12700Y-25400D02*
X12700Y-527050D01*
G54D10*
G75*
G01X111125Y-720725D02*
G03X120650Y-730250I9525J0D01*
G01*
G54D10*
X111125Y-546100D02*
X111125Y-720725D01*
G54D10*
G75*
G01X441325Y-730250D02*
G03X450850Y-720725I0J9525D01*
G01*
G54D10*
X120650Y-730250D02*
X441325Y-730250D01*
G54D10*
G75*
G01X450850Y-25400D02*
G03X441325Y-15875I-9525J0D01*
G01*
G54D10*
G75*
G01X650875Y-34925D02*
G03X660400Y-25400I0J9525D01*
G01*
G54D10*
X650875Y-34925D02*
X590550Y-34925D01*
G54D10*
G75*
G01X581025Y-25400D02*
G03X590550Y-34925I9525J0D01*
G01*
G54D10*
G75*
G01X869950Y-34925D02*
G03X879475Y-25400I0J9525D01*
G01*
G54D10*
X869950Y-34925D02*
X809625Y-34925D01*
G54D10*
G75*
G01X800100Y-25400D02*
G03X809625Y-34925I9525J0D01*
G01*
G54D10*
X581025Y-25400D02*
X581025Y-15875D01*
X504825Y-15875D01*
G54D10*
X660400Y-25400D02*
X660400Y-15875D01*
X800100Y-15875D01*
X800100Y-25400D01*
G54D10*
X879475Y-25400D02*
X879475Y-15875D01*
X923925Y-15875D01*
G54D10*
X933450Y-25400D02*
X933450Y-508000D01*
G54D10*
G75*
G01X504825Y-15875D02*
G03X495300Y-25400I0J-9525D01*
G01*
G54D10*
X923925Y-517525D02*
X504825Y-517525D01*
G54D10*
G75*
G01X495300Y-508000D02*
G03X504825Y-517525I9525J0D01*
G01*
G54D10*
X495300Y-25400D02*
X495300Y-508000D01*
G54D10*
G75*
G01X923925Y-517525D02*
G03X933450Y-508000I0J9525D01*
G01*
G54D10*
G75*
G01X933450Y-25400D02*
G03X923925Y-15875I-9525J0D01*
G01*
G54D10*
X400050Y-596900D02*
X450850Y-596900D01*
X450850Y-25400D01*
M02*
