%FSLAX34Y34*%
%MOMM*%
%LNSOLDERMASK_BOTTOM*%
G71*
G01*
%ADD10C, 2.40*%
%ADD11C, 2.90*%
%ADD12C, 2.10*%
%ADD13C, 2.40*%
%ADD14C, 2.80*%
%ADD15C, 1.80*%
%ADD16C, 2.20*%
%ADD17C, 2.50*%
%ADD18C, 2.60*%
%ADD19C, 3.50*%
%ADD20C, 2.00*%
%ADD21C, 2.50*%
%ADD22C, 5.50*%
%ADD23C, 0.52*%
%ADD24R, 1.60X1.50*%
%ADD25R, 1.50X1.60*%
%ADD26R, 1.90X2.00*%
%LPD*%
G54D10*
X282575Y-88925D02*
X282575Y-107925D01*
G54D10*
X265075Y-47725D02*
X265075Y-66725D01*
G54D10*
X247575Y-88925D02*
X247575Y-107925D01*
G54D10*
X230075Y-47725D02*
X230075Y-66725D01*
G36*
X200675Y-83945D02*
X207695Y-76925D01*
X217655Y-76925D01*
X224675Y-83945D01*
X224675Y-112905D01*
X217655Y-119925D01*
X207695Y-119925D01*
X200675Y-112905D01*
X200675Y-83945D01*
G37*
X69850Y-365125D02*
G54D11*
D03*
X69850Y-139700D02*
G54D11*
D03*
X69850Y-288925D02*
G54D11*
D03*
X69850Y-314325D02*
G54D11*
D03*
X69850Y-263525D02*
G54D11*
D03*
X69850Y-238125D02*
G54D11*
D03*
X69850Y-212725D02*
G54D11*
D03*
X69850Y-187325D02*
G54D11*
D03*
X69850Y-161925D02*
G54D11*
D03*
X317500Y-161925D02*
G54D12*
D03*
X266700Y-161925D02*
G54D12*
D03*
G36*
X304100Y-219775D02*
X304100Y-243775D01*
X280100Y-243775D01*
X280100Y-219775D01*
X304100Y-219775D01*
G37*
X342900Y-231775D02*
G54D13*
D03*
X330200Y-231975D02*
G54D12*
D03*
G36*
X164400Y-219775D02*
X164400Y-243775D01*
X140400Y-243775D01*
X140400Y-219775D01*
X164400Y-219775D01*
G37*
X203200Y-231775D02*
G54D13*
D03*
G36*
X175600Y-221475D02*
X175600Y-242475D01*
X154600Y-242475D01*
X154600Y-221475D01*
X175600Y-221475D01*
G37*
X149225Y-79375D02*
G54D13*
D03*
G36*
X100625Y-89675D02*
X100625Y-68675D01*
X121625Y-68675D01*
X121625Y-89675D01*
X100625Y-89675D01*
G37*
X342900Y-444500D02*
G54D14*
D03*
X342900Y-495300D02*
G54D14*
D03*
X342900Y-546100D02*
G54D14*
D03*
X342900Y-698500D02*
G54D14*
D03*
X419100Y-444500D02*
G54D14*
D03*
X419100Y-495300D02*
G54D14*
D03*
X419100Y-546100D02*
G54D14*
D03*
X419100Y-698500D02*
G54D14*
D03*
X419100Y-530225D02*
G54D14*
D03*
X419100Y-460375D02*
G54D14*
D03*
G54D15*
X279250Y-555625D02*
X292250Y-555625D01*
G54D15*
X279250Y-581025D02*
X292250Y-581025D01*
G54D15*
X279250Y-606425D02*
X292250Y-606425D01*
G54D15*
X279250Y-631825D02*
X292250Y-631825D01*
G54D15*
X279250Y-657225D02*
X292250Y-657225D01*
G54D15*
X279250Y-682625D02*
X292250Y-682625D01*
G54D15*
X279250Y-708025D02*
X292250Y-708025D01*
G36*
X270350Y-539225D02*
X270350Y-521225D01*
X301350Y-521225D01*
X301350Y-539225D01*
X270350Y-539225D01*
G37*
X44450Y-415925D02*
G54D16*
D03*
X69850Y-415925D02*
G54D16*
D03*
X171450Y-619125D02*
G54D17*
D03*
X196850Y-619125D02*
G54D17*
D03*
X95250Y-415925D02*
G54D16*
D03*
X44450Y-479425D02*
G54D18*
D03*
X69850Y-479425D02*
G54D18*
D03*
X95250Y-479425D02*
G54D18*
D03*
G36*
X113325Y-89675D02*
X113325Y-68675D01*
X134325Y-68675D01*
X134325Y-89675D01*
X113325Y-89675D01*
G37*
X287496Y-342900D02*
G54D19*
D03*
X247396Y-342900D02*
G54D19*
D03*
X207596Y-343000D02*
G54D19*
D03*
X228600Y-161925D02*
G54D12*
D03*
X177800Y-161925D02*
G54D12*
D03*
X422275Y-114300D02*
G54D20*
D03*
X422275Y-311150D02*
G54D20*
D03*
X330200Y-400050D02*
G54D21*
D03*
X330200Y-298101D02*
G54D21*
D03*
X377825Y-247650D02*
G54D21*
D03*
X377825Y-349600D02*
G54D21*
D03*
X434975Y-374650D02*
G54D12*
D03*
X384175Y-374650D02*
G54D12*
D03*
X231775Y-555625D02*
G54D13*
D03*
G36*
X183175Y-565925D02*
X183175Y-544925D01*
X204175Y-544925D01*
X204175Y-565925D01*
X183175Y-565925D01*
G37*
G36*
X195875Y-565925D02*
X195875Y-544925D01*
X216875Y-544925D01*
X216875Y-565925D01*
X195875Y-565925D01*
G37*
X231775Y-682625D02*
G54D13*
D03*
G36*
X183175Y-692925D02*
X183175Y-671925D01*
X204175Y-671925D01*
X204175Y-692925D01*
X183175Y-692925D01*
G37*
G36*
X195875Y-692925D02*
X195875Y-671925D01*
X216875Y-671925D01*
X216875Y-692925D01*
X195875Y-692925D01*
G37*
X146050Y-479425D02*
G54D18*
D03*
X120655Y-479427D02*
G54D18*
D03*
X44450Y-47625D02*
G54D22*
D03*
X260350Y-485775D02*
G54D19*
D03*
X260350Y-445675D02*
G54D19*
D03*
X419100Y-47625D02*
G54D22*
D03*
X142875Y-701675D02*
G54D22*
D03*
X142875Y-419100D02*
G54D22*
D03*
G54D23*
X117475Y-224664D02*
X117475Y-231775D01*
X118586Y-231775D01*
X120808Y-230886D01*
X127475Y-225553D01*
X129697Y-224664D01*
X131920Y-224664D01*
X134142Y-225553D01*
X135253Y-227331D01*
X135253Y-229108D01*
X134142Y-230886D01*
X131920Y-231775D01*
G54D23*
X131920Y-211331D02*
X120808Y-211331D01*
X118586Y-212220D01*
X117475Y-213998D01*
X117475Y-215775D01*
X118586Y-217553D01*
X120808Y-218442D01*
X131920Y-218442D01*
X134142Y-217553D01*
X135253Y-215775D01*
X135253Y-213998D01*
X134142Y-212220D01*
X131920Y-211331D01*
G54D23*
X128586Y-205109D02*
X135253Y-200665D01*
X117475Y-200665D01*
G54D23*
X135253Y-194443D02*
X135253Y-187332D01*
X133030Y-188221D01*
X129697Y-189999D01*
X125253Y-191776D01*
X121920Y-192665D01*
X117475Y-192665D01*
G54D23*
X117475Y-181110D02*
X135253Y-173999D01*
G54D23*
X131920Y-160666D02*
X120808Y-160666D01*
X118586Y-161555D01*
X117475Y-163333D01*
X117475Y-165110D01*
X118586Y-166888D01*
X120808Y-167777D01*
X131920Y-167777D01*
X134142Y-166888D01*
X135253Y-165110D01*
X135253Y-163333D01*
X134142Y-161555D01*
X131920Y-160666D01*
G54D23*
X117475Y-149111D02*
X135253Y-149111D01*
X124142Y-154444D01*
X121920Y-154444D01*
X121920Y-147333D01*
G54D23*
X117475Y-141111D02*
X135253Y-134000D01*
G54D23*
X117475Y-120667D02*
X117475Y-127778D01*
X118586Y-127778D01*
X120808Y-126889D01*
X127475Y-121556D01*
X129697Y-120667D01*
X131920Y-120667D01*
X134142Y-121556D01*
X135253Y-123334D01*
X135253Y-125111D01*
X134142Y-126889D01*
X131920Y-127778D01*
G54D23*
X117475Y-107334D02*
X117475Y-114445D01*
X118586Y-114445D01*
X120808Y-113556D01*
X127475Y-108223D01*
X129697Y-107334D01*
X131920Y-107334D01*
X134142Y-108223D01*
X135253Y-110001D01*
X135253Y-111778D01*
X134142Y-113556D01*
X131920Y-114445D01*
G54D23*
X92075Y-320675D02*
X109853Y-316230D01*
X92075Y-311786D01*
G54D23*
X98742Y-318897D02*
X98742Y-313564D01*
G54D23*
X92075Y-305564D02*
X109853Y-305564D01*
X98742Y-301120D01*
X109853Y-296675D01*
X92075Y-296675D01*
G54D23*
X92075Y-290453D02*
X109853Y-290453D01*
X109853Y-286009D01*
X108742Y-284231D01*
X106520Y-283342D01*
X104297Y-283342D01*
X102075Y-284231D01*
X100964Y-286009D01*
X100964Y-290453D01*
G54D23*
X109853Y-270009D02*
X109853Y-277120D01*
X102075Y-277120D01*
X102075Y-276231D01*
X103186Y-274453D01*
X103186Y-272676D01*
X102075Y-270898D01*
X99853Y-270009D01*
X95408Y-270009D01*
X93186Y-270898D01*
X92075Y-272676D01*
X92075Y-274453D01*
X93186Y-276231D01*
X95408Y-277120D01*
G54D23*
X92075Y-263076D02*
X92075Y-263787D01*
X92964Y-263787D01*
X92964Y-263076D01*
X92075Y-263076D01*
X92075Y-263787D01*
G54D23*
X92075Y-253298D02*
X109853Y-253298D01*
G54D23*
X109853Y-256854D02*
X109853Y-249743D01*
G54D23*
X92075Y-243521D02*
X109853Y-243521D01*
X109853Y-239077D01*
X108742Y-237299D01*
X106520Y-236410D01*
X95408Y-236410D01*
X93186Y-237299D01*
X92075Y-239077D01*
X92075Y-243521D01*
G54D23*
X92075Y-230188D02*
X109853Y-225744D01*
X92075Y-221299D01*
G54D23*
X98742Y-228410D02*
X98742Y-223077D01*
G54D23*
X92075Y-207966D02*
X92075Y-215077D01*
X93186Y-215077D01*
X95408Y-214188D01*
X102075Y-208855D01*
X104297Y-207966D01*
X106520Y-207966D01*
X108742Y-208855D01*
X109853Y-210633D01*
X109853Y-212410D01*
X108742Y-214188D01*
X106520Y-215077D01*
G54D23*
X106520Y-194633D02*
X95408Y-194633D01*
X93186Y-195522D01*
X92075Y-197300D01*
X92075Y-199077D01*
X93186Y-200855D01*
X95408Y-201744D01*
X106520Y-201744D01*
X108742Y-200855D01*
X109853Y-199077D01*
X109853Y-197300D01*
X108742Y-195522D01*
X106520Y-194633D01*
G54D23*
X102075Y-188411D02*
X92075Y-181300D01*
G54D23*
X92075Y-188411D02*
X102075Y-181300D01*
G54D23*
X102075Y-175078D02*
X92075Y-167967D01*
G54D23*
X92075Y-175078D02*
X102075Y-167967D01*
G54D23*
X92075Y-161745D02*
X109853Y-161745D01*
X109853Y-157301D01*
X108742Y-155523D01*
X106520Y-154634D01*
X104297Y-154634D01*
X102075Y-155523D01*
X100964Y-157301D01*
X100964Y-161745D01*
G54D23*
X92075Y-147701D02*
X92075Y-148412D01*
X92964Y-148412D01*
X92964Y-147701D01*
X92075Y-147701D01*
X92075Y-148412D01*
G54D23*
X106520Y-134368D02*
X95408Y-134368D01*
X93186Y-135257D01*
X92075Y-137035D01*
X92075Y-138812D01*
X93186Y-140590D01*
X95408Y-141479D01*
X106520Y-141479D01*
X108742Y-140590D01*
X109853Y-138812D01*
X109853Y-137035D01*
X108742Y-135257D01*
X106520Y-134368D01*
G54D23*
X92075Y-121035D02*
X92075Y-128146D01*
X93186Y-128146D01*
X95408Y-127257D01*
X102075Y-121924D01*
X104297Y-121035D01*
X106520Y-121035D01*
X108742Y-121924D01*
X109853Y-123702D01*
X109853Y-125479D01*
X108742Y-127257D01*
X106520Y-128146D01*
G54D23*
X85725Y-523875D02*
X85725Y-506097D01*
X79503Y-506097D01*
G54D23*
X85725Y-514986D02*
X79503Y-514986D01*
G54D23*
X73281Y-514986D02*
X71503Y-513875D01*
X69370Y-513875D01*
X67948Y-516097D01*
X67948Y-523875D01*
G54D23*
X67948Y-520542D02*
X68836Y-518320D01*
X70614Y-517875D01*
X72392Y-518320D01*
X73281Y-520542D01*
X72926Y-522764D01*
X71503Y-523875D01*
X70614Y-523875D01*
X70259Y-523875D01*
X68836Y-522764D01*
X67948Y-520542D01*
G54D23*
X61726Y-527208D02*
X59948Y-528320D01*
X58704Y-528320D01*
X56926Y-527208D01*
X56393Y-524986D01*
X56393Y-513875D01*
G54D23*
X56393Y-516764D02*
X57282Y-514542D01*
X59059Y-513875D01*
X60837Y-514542D01*
X61726Y-516764D01*
X61726Y-521208D01*
X60837Y-523430D01*
X59059Y-523875D01*
X57282Y-523430D01*
X56393Y-521208D01*
G54D23*
X44838Y-522764D02*
X46260Y-523875D01*
X48038Y-523875D01*
X49816Y-522764D01*
X50171Y-520542D01*
X50171Y-516764D01*
X49282Y-514542D01*
X47504Y-513875D01*
X45726Y-514542D01*
X44838Y-516097D01*
X44838Y-518320D01*
X50171Y-518320D01*
G54D23*
X38616Y-514986D02*
X36838Y-513875D01*
X34705Y-513875D01*
X33283Y-516097D01*
X33283Y-523875D01*
G54D23*
X33283Y-520542D02*
X34172Y-518320D01*
X35949Y-517875D01*
X37727Y-518320D01*
X38616Y-520542D01*
X38260Y-522764D01*
X36838Y-523875D01*
X35949Y-523875D01*
X35594Y-523875D01*
X34172Y-522764D01*
X33283Y-520542D01*
G54D23*
X27061Y-523875D02*
X27061Y-513875D01*
G54D23*
X27061Y-516097D02*
X25283Y-513875D01*
X23506Y-513875D01*
G54D10*
X765175Y-88925D02*
X765175Y-107925D01*
G54D10*
X747675Y-47725D02*
X747675Y-66725D01*
G54D10*
X730175Y-88925D02*
X730175Y-107925D01*
G54D10*
X712675Y-47725D02*
X712675Y-66725D01*
G36*
X683275Y-83945D02*
X690295Y-76925D01*
X700255Y-76925D01*
X707275Y-83945D01*
X707275Y-112905D01*
X700255Y-119925D01*
X690295Y-119925D01*
X683275Y-112905D01*
X683275Y-83945D01*
G37*
X552450Y-365125D02*
G54D11*
D03*
X552450Y-139700D02*
G54D11*
D03*
X552450Y-288925D02*
G54D11*
D03*
X552450Y-314325D02*
G54D11*
D03*
X552450Y-263525D02*
G54D11*
D03*
X552450Y-238125D02*
G54D11*
D03*
X552450Y-212725D02*
G54D11*
D03*
X552450Y-187325D02*
G54D11*
D03*
X552450Y-161925D02*
G54D11*
D03*
X800100Y-161925D02*
G54D12*
D03*
X749300Y-161925D02*
G54D12*
D03*
G36*
X786700Y-219775D02*
X786700Y-243775D01*
X762700Y-243775D01*
X762700Y-219775D01*
X786700Y-219775D01*
G37*
X825500Y-231775D02*
G54D13*
D03*
X812800Y-231975D02*
G54D12*
D03*
G36*
X647000Y-219775D02*
X647000Y-243775D01*
X623000Y-243775D01*
X623000Y-219775D01*
X647000Y-219775D01*
G37*
X685800Y-231775D02*
G54D13*
D03*
G36*
X658200Y-221475D02*
X658200Y-242475D01*
X637200Y-242475D01*
X637200Y-221475D01*
X658200Y-221475D01*
G37*
X631825Y-79375D02*
G54D13*
D03*
G36*
X583225Y-89675D02*
X583225Y-68675D01*
X604225Y-68675D01*
X604225Y-89675D01*
X583225Y-89675D01*
G37*
X527050Y-415925D02*
G54D16*
D03*
X552450Y-415925D02*
G54D16*
D03*
X577850Y-415925D02*
G54D16*
D03*
X527050Y-479425D02*
G54D18*
D03*
X552450Y-479425D02*
G54D18*
D03*
X577850Y-479425D02*
G54D18*
D03*
G36*
X595925Y-89675D02*
X595925Y-68675D01*
X616925Y-68675D01*
X616925Y-89675D01*
X595925Y-89675D01*
G37*
X770096Y-342900D02*
G54D19*
D03*
X729996Y-342900D02*
G54D19*
D03*
X690196Y-343000D02*
G54D19*
D03*
X711200Y-161925D02*
G54D12*
D03*
X660400Y-161925D02*
G54D12*
D03*
X904875Y-114300D02*
G54D20*
D03*
X904875Y-311150D02*
G54D20*
D03*
X812800Y-400050D02*
G54D21*
D03*
X812800Y-298101D02*
G54D21*
D03*
X860425Y-247650D02*
G54D21*
D03*
X860425Y-349600D02*
G54D21*
D03*
X917575Y-374650D02*
G54D12*
D03*
X866775Y-374650D02*
G54D12*
D03*
X527050Y-47625D02*
G54D22*
D03*
X742950Y-485775D02*
G54D19*
D03*
X742950Y-445675D02*
G54D19*
D03*
X901700Y-47625D02*
G54D22*
D03*
X625475Y-419100D02*
G54D22*
D03*
G54D23*
X600075Y-224664D02*
X600075Y-231775D01*
X601186Y-231775D01*
X603408Y-230886D01*
X610075Y-225553D01*
X612297Y-224664D01*
X614519Y-224664D01*
X616742Y-225553D01*
X617853Y-227331D01*
X617853Y-229108D01*
X616742Y-230886D01*
X614519Y-231775D01*
G54D23*
X614519Y-211331D02*
X603408Y-211331D01*
X601186Y-212220D01*
X600075Y-213998D01*
X600075Y-215775D01*
X601186Y-217553D01*
X603408Y-218442D01*
X614519Y-218442D01*
X616742Y-217553D01*
X617853Y-215775D01*
X617853Y-213998D01*
X616742Y-212220D01*
X614519Y-211331D01*
G54D23*
X611186Y-205109D02*
X617853Y-200665D01*
X600075Y-200665D01*
G54D23*
X617853Y-194443D02*
X617853Y-187332D01*
X615631Y-188221D01*
X612297Y-189999D01*
X607853Y-191776D01*
X604519Y-192665D01*
X600075Y-192665D01*
G54D23*
X600075Y-181110D02*
X617853Y-173999D01*
G54D23*
X614519Y-160666D02*
X603408Y-160666D01*
X601186Y-161555D01*
X600075Y-163333D01*
X600075Y-165110D01*
X601186Y-166888D01*
X603408Y-167777D01*
X614519Y-167777D01*
X616742Y-166888D01*
X617853Y-165110D01*
X617853Y-163333D01*
X616742Y-161555D01*
X614519Y-160666D01*
G54D23*
X600075Y-149111D02*
X617853Y-149111D01*
X606742Y-154444D01*
X604519Y-154444D01*
X604519Y-147333D01*
G54D23*
X600075Y-141111D02*
X617853Y-134000D01*
G54D23*
X600075Y-120667D02*
X600075Y-127778D01*
X601186Y-127778D01*
X603408Y-126889D01*
X610075Y-121556D01*
X612297Y-120667D01*
X614519Y-120667D01*
X616742Y-121556D01*
X617853Y-123334D01*
X617853Y-125111D01*
X616742Y-126889D01*
X614519Y-127778D01*
G54D23*
X600075Y-107334D02*
X600075Y-114445D01*
X601186Y-114445D01*
X603408Y-113556D01*
X610075Y-108223D01*
X612297Y-107334D01*
X614519Y-107334D01*
X616742Y-108223D01*
X617853Y-110001D01*
X617853Y-111778D01*
X616742Y-113556D01*
X614519Y-114445D01*
G54D23*
X574675Y-320675D02*
X592453Y-316230D01*
X574675Y-311786D01*
G54D23*
X581342Y-318897D02*
X581342Y-313564D01*
G54D23*
X574675Y-305564D02*
X592453Y-305564D01*
X581342Y-301120D01*
X592453Y-296675D01*
X574675Y-296675D01*
G54D23*
X574675Y-290453D02*
X592453Y-290453D01*
X592453Y-286009D01*
X591342Y-284231D01*
X589119Y-283342D01*
X586897Y-283342D01*
X584675Y-284231D01*
X583564Y-286009D01*
X583564Y-290453D01*
G54D23*
X592453Y-270009D02*
X592453Y-277120D01*
X584675Y-277120D01*
X584675Y-276231D01*
X585786Y-274453D01*
X585786Y-272676D01*
X584675Y-270898D01*
X582453Y-270009D01*
X578008Y-270009D01*
X575786Y-270898D01*
X574675Y-272676D01*
X574675Y-274453D01*
X575786Y-276231D01*
X578008Y-277120D01*
G54D23*
X574675Y-263076D02*
X574675Y-263787D01*
X575564Y-263787D01*
X575564Y-263076D01*
X574675Y-263076D01*
X574675Y-263787D01*
G54D23*
X574675Y-253298D02*
X592453Y-253298D01*
G54D23*
X592453Y-256854D02*
X592453Y-249743D01*
G54D23*
X574675Y-243521D02*
X592453Y-243521D01*
X592453Y-239077D01*
X591342Y-237299D01*
X589119Y-236410D01*
X578008Y-236410D01*
X575786Y-237299D01*
X574675Y-239077D01*
X574675Y-243521D01*
G54D23*
X574675Y-230188D02*
X592453Y-225744D01*
X574675Y-221299D01*
G54D23*
X581342Y-228410D02*
X581342Y-223077D01*
G54D23*
X574675Y-207966D02*
X574675Y-215077D01*
X575786Y-215077D01*
X578008Y-214188D01*
X584675Y-208855D01*
X586897Y-207966D01*
X589119Y-207966D01*
X591342Y-208855D01*
X592453Y-210633D01*
X592453Y-212410D01*
X591342Y-214188D01*
X589119Y-215077D01*
G54D23*
X589119Y-194633D02*
X578008Y-194633D01*
X575786Y-195522D01*
X574675Y-197300D01*
X574675Y-199077D01*
X575786Y-200855D01*
X578008Y-201744D01*
X589119Y-201744D01*
X591342Y-200855D01*
X592453Y-199077D01*
X592453Y-197300D01*
X591342Y-195522D01*
X589119Y-194633D01*
G54D23*
X584675Y-188411D02*
X574675Y-181300D01*
G54D23*
X574675Y-188411D02*
X584675Y-181300D01*
G54D23*
X584675Y-175078D02*
X574675Y-167967D01*
G54D23*
X574675Y-175078D02*
X584675Y-167967D01*
G54D23*
X592453Y-161745D02*
X578008Y-161745D01*
X575786Y-160856D01*
X574675Y-159078D01*
X574675Y-157301D01*
X575786Y-155523D01*
X578008Y-154634D01*
X592453Y-154634D01*
G54D23*
X574675Y-147701D02*
X574675Y-148412D01*
X575564Y-148412D01*
X575564Y-147701D01*
X574675Y-147701D01*
X574675Y-148412D01*
G54D23*
X589119Y-134368D02*
X578008Y-134368D01*
X575786Y-135257D01*
X574675Y-137035D01*
X574675Y-138812D01*
X575786Y-140590D01*
X578008Y-141479D01*
X589119Y-141479D01*
X591342Y-140590D01*
X592453Y-138812D01*
X592453Y-137035D01*
X591342Y-135257D01*
X589119Y-134368D01*
G54D23*
X574675Y-121035D02*
X574675Y-128146D01*
X575786Y-128146D01*
X578008Y-127257D01*
X584675Y-121924D01*
X586897Y-121035D01*
X589119Y-121035D01*
X591342Y-121924D01*
X592453Y-123702D01*
X592453Y-125479D01*
X591342Y-127257D01*
X589119Y-128146D01*
G54D23*
X914400Y-498475D02*
X914400Y-480697D01*
X908178Y-480697D01*
G54D23*
X914400Y-489586D02*
X908178Y-489586D01*
G54D23*
X901956Y-489586D02*
X900178Y-488475D01*
X898045Y-488475D01*
X896623Y-490697D01*
X896623Y-498475D01*
G54D23*
X896623Y-495142D02*
X897512Y-492920D01*
X899289Y-492475D01*
X901067Y-492920D01*
X901956Y-495142D01*
X901600Y-497364D01*
X900178Y-498475D01*
X899289Y-498475D01*
X898934Y-498475D01*
X897512Y-497364D01*
X896623Y-495142D01*
G54D23*
X890401Y-501808D02*
X888623Y-502920D01*
X887379Y-502920D01*
X885601Y-501808D01*
X885068Y-499586D01*
X885068Y-488475D01*
G54D23*
X885068Y-491364D02*
X885957Y-489142D01*
X887734Y-488475D01*
X889512Y-489142D01*
X890401Y-491364D01*
X890401Y-495808D01*
X889512Y-498030D01*
X887734Y-498475D01*
X885957Y-498030D01*
X885068Y-495808D01*
G54D23*
X873513Y-497364D02*
X874935Y-498475D01*
X876713Y-498475D01*
X878490Y-497364D01*
X878846Y-495142D01*
X878846Y-491364D01*
X877957Y-489142D01*
X876179Y-488475D01*
X874402Y-489142D01*
X873513Y-490697D01*
X873513Y-492920D01*
X878846Y-492920D01*
G54D23*
X867291Y-489586D02*
X865513Y-488475D01*
X863380Y-488475D01*
X861958Y-490697D01*
X861958Y-498475D01*
G54D23*
X861958Y-495142D02*
X862847Y-492920D01*
X864624Y-492475D01*
X866402Y-492920D01*
X867291Y-495142D01*
X866935Y-497364D01*
X865513Y-498475D01*
X864624Y-498475D01*
X864269Y-498475D01*
X862847Y-497364D01*
X861958Y-495142D01*
G54D23*
X855736Y-498475D02*
X855736Y-488475D01*
G54D23*
X855736Y-490697D02*
X853958Y-488475D01*
X852180Y-488475D01*
X44450Y-184150D02*
G54D24*
D03*
X44450Y-161950D02*
G54D24*
D03*
X184150Y-44450D02*
G54D25*
D03*
X206350Y-44450D02*
G54D25*
D03*
X184150Y-66675D02*
G54D25*
D03*
X206350Y-66675D02*
G54D25*
D03*
X82550Y-339725D02*
G54D25*
D03*
X104750Y-339725D02*
G54D25*
D03*
X171450Y-479425D02*
G54D25*
D03*
X193650Y-479425D02*
G54D25*
D03*
X69850Y-457200D02*
G54D24*
D03*
X69850Y-435000D02*
G54D24*
D03*
X257175Y-704850D02*
G54D24*
D03*
X257175Y-682650D02*
G54D24*
D03*
X314325Y-581025D02*
G54D25*
D03*
X336525Y-581025D02*
G54D25*
D03*
X314325Y-606425D02*
G54D25*
D03*
X336525Y-606425D02*
G54D25*
D03*
X314325Y-631825D02*
G54D25*
D03*
X336525Y-631825D02*
G54D25*
D03*
X206375Y-708025D02*
G54D25*
D03*
X228575Y-708025D02*
G54D25*
D03*
X565150Y-339725D02*
G54D25*
D03*
X587350Y-339725D02*
G54D25*
D03*
X666750Y-44450D02*
G54D25*
D03*
X688950Y-44450D02*
G54D25*
D03*
X666750Y-66675D02*
G54D25*
D03*
X688950Y-66675D02*
G54D25*
D03*
X527050Y-184150D02*
G54D24*
D03*
X527050Y-161950D02*
G54D24*
D03*
X552450Y-457200D02*
G54D24*
D03*
X552450Y-435000D02*
G54D24*
D03*
X401638Y-673100D02*
G54D26*
D03*
X360534Y-673100D02*
G54D26*
D03*
X44450Y-228600D02*
G54D24*
D03*
X44450Y-206400D02*
G54D24*
D03*
X527050Y-228600D02*
G54D24*
D03*
X527050Y-206400D02*
G54D24*
D03*
M02*
