; Drill file
; Format: 2.4 (00.0000)
M48
INCH
T01C0.0315
T02C0.0394
T03C0.0472
T04C0.0669
T05C0.1181
%
G05
G90
T01
X007620Y-026870
X008120Y-026870
X009120Y-026880
X011250Y-026880
X011250Y-025870
X011250Y-024870
X011250Y-023880
X011250Y-022880
X011250Y-021880
X011250Y-020870
X009120Y-021880
X008120Y-021870
X007620Y-021870
X003750Y-016370
X002750Y-016370
X001750Y-016370
X006000Y-009120
X006500Y-009130
X008000Y-009120
X009000Y-006370
X010500Y-006370
X012500Y-006370
X013000Y-009130
X013500Y-009120
X011500Y-009120
X007000Y-006370
X005880Y-003120
X004870Y-003120
X004380Y-003120
X016630Y-004500
X023370Y-003120
X023880Y-003120
X024870Y-003120
X026000Y-006370
X028000Y-006370
X029500Y-006370
X031500Y-006370
X032000Y-009130
X032500Y-009120
X030500Y-009120
X027000Y-009120
X025500Y-009130
X025000Y-009120
X022750Y-016370
X021750Y-016370
X020750Y-016370
X017120Y-014750
X015120Y-014750
X016630Y-012250
X011250Y-027880
X034130Y-014750
X036120Y-014750
X035620Y-012250
X035620Y-004500
T02
X006750Y-024380
X007750Y-024380
T03
X001750Y-018870
X002750Y-018870
X003750Y-018870
X004750Y-018880
X005750Y-018870
X002750Y-014380
X002750Y-012380
X002750Y-011370
X002750Y-010380
X002750Y-009380
X002750Y-008380
X002750Y-007380
X002750Y-006370
X002750Y-005500
X008370Y-003880
X009750Y-003880
X011130Y-003880
X010440Y-002250
X009060Y-002250
X014880Y-009750
X013000Y-011740
X014880Y-013760
X013000Y-015750
X013500Y-017500
X013500Y-019500
X013500Y-021500
X016500Y-021500
X016500Y-020870
X016500Y-019500
X016500Y-018120
X016500Y-017500
X020750Y-018870
X021750Y-018870
X022750Y-018870
X021750Y-014380
X021750Y-012380
X021750Y-011370
X021750Y-010380
X021750Y-009380
X021750Y-008380
X021750Y-007380
X021750Y-006370
X021750Y-005500
X027370Y-003880
X028750Y-003880
X030130Y-003880
X029440Y-002250
X028060Y-002250
X033880Y-009750
X032000Y-011740
X033880Y-013760
X032000Y-015750
X016500Y-027500
X013500Y-027500
T04
X010250Y-019130
X010250Y-017550
X009740Y-013500
X008170Y-013500
X011320Y-013500
X027170Y-013500
X028740Y-013500
X030320Y-013500
X029250Y-017550
X029250Y-019130
T05
X005620Y-027630
X005620Y-016500
X001750Y-001880
X016500Y-001880
X020750Y-001880
X035500Y-001880
X024620Y-016500
M30
